<?xml version="1.0" encoding="utf-8"?>
<!-- Generator: Adobe Illustrator 27.3.1, SVG Export Plug-In . SVG Version: 6.00 Build 0)  -->
<svg version="1.1" id="Layer_1" xmlns="http://www.w3.org/2000/svg" xmlns:xlink="http://www.w3.org/1999/xlink" x="0px" y="0px"
	 viewBox="0 0 272.2 272.2" style="enable-background:new 0 0 272.2 272.2;" xml:space="preserve">
<style type="text/css">
	.st0{fill:#563D7C;}
	.st1{fill:#FEFEFE;}
	.st2{fill:#573E7D;}
</style>
<path class="st0" d="M101.2,272.1c-18.8,0-37.3,0.1-55.9,0c-10.8-0.1-20.5-3.6-28.9-10.6c-8.8-7.4-13.9-16.9-15.9-28.1
	c-0.4-2.1-0.5-4.2-0.5-6.3c0-60.7-0.1-121.3,0-182c0-14.3,5.9-26,17-35.1C24,4.3,32,1.2,40.8,0.1c1-0.1,2-0.1,3.1-0.1
	c61.5,0,123.1,0,184.6,0c10.3,0,19.4,3.8,27.3,10.3c5.1,4.2,9.1,9.3,12,15.3c2.8,6,4.4,12.2,4.4,18.9c0,61,0,122,0,183
	c0,6.6-1.6,12.8-4.3,18.7c-1.9,4.2-4.5,8-7.6,11.3c-6.9,7.2-15.1,12.1-25.1,13.8c-3.3,0.6-6.7,0.8-10.1,0.8
	C183.8,272.2,142.6,272.1,101.2,272.1 M197.5,89.5c-1.3-7.2-4.3-13.6-9.7-18.6c-3.1-2.8-6.6-5-10.4-6.8c-7.8-3.5-16.1-5-24.6-5
	c-25.7,0-51.4,0-77.1,0c-0.5,0-1,0.1-1.6,0.1c0,52.9,0,105.6,0,158.5c0.8,0,1.6,0,2.3,0c23.1,0,46.2,0,69.3,0
	c5.7,0,11.4-0.3,17.1-1.1c8.1-1.2,15.9-3.6,23-7.8c9.7-5.6,15.9-13.9,18.3-24.8c1.6-7.2,1.6-14.5,0.1-21.7
	c-3.1-15.3-11.7-25.5-27.2-29.4c-0.4-0.1-0.9-0.3-1.7-0.6c1.4-0.7,2.6-1.3,3.7-1.9c8.8-4.7,15.1-11.5,17.8-21.3
	C198.7,102.9,198.7,96.4,197.5,89.5z"/>
<path class="st1" d="M197.6,89.7c1.1,6.7,1.1,13.2-0.7,19.6c-2.7,9.7-9,16.6-17.8,21.3c-1.1,0.6-2.2,1.1-3.7,1.9
	c0.8,0.3,1.2,0.5,1.7,0.6c15.5,3.9,24.1,14.1,27.2,29.4c1.5,7.2,1.5,14.5-0.1,21.7c-2.4,11-8.6,19.2-18.3,24.8
	c-7.2,4.1-14.9,6.5-23,7.8c-5.7,0.9-11.4,1.1-17.1,1.1c-23.1,0-46.2,0-69.3,0c-0.7,0-1.5,0-2.3,0c0-52.9,0-105.7,0-158.5
	c0.5-0.1,1-0.1,1.6-0.1c25.7,0,51.4,0,77.1,0c8.5,0,16.8,1.4,24.6,5c3.8,1.7,7.3,3.9,10.4,6.8C193.3,76,196.3,82.3,197.6,89.7
	 M168.7,190.2c4.8-3.6,7.6-8.5,8.4-14.4c0.4-3.1,0.5-6.4,0.3-9.5c-0.7-9.6-6.6-16.6-15.8-19.3c-3.5-1-7.1-1.3-10.7-1.3
	c-15.8,0-31.6,0-47.3,0c-0.5,0-1,0.1-1.5,0.2c0,16.5,0,32.9,0,49.4c0.8,0,1.6,0,2.3,0c13.2,0,26.4,0,39.6,0c3.2,0,6.4,0.1,9.6-0.1
	C158.9,194.8,164,193.5,168.7,190.2 M161.5,84.7c-4.5-2.3-9.3-2.9-14.2-3c-14.5,0-28.9,0-43.4,0c-0.6,0-1.2,0.1-1.9,0.1
	c0,14.6,0,29.1,0,43.7c0.6,0,1.1,0.1,1.5,0.1c14.6,0,29.2,0.1,43.8-0.1c2.7,0,5.5-0.4,8-1.2c7.7-2.3,13-7.2,14.6-15.4
	c1-4.8,0.7-9.6-0.6-14.3C168.3,90.3,165.9,86.9,161.5,84.7z"/>
<path class="st0" d="M168.6,190.2c-4.6,3.3-9.7,4.5-15.1,4.8c-3.2,0.1-6.4,0.1-9.6,0.1c-13.2,0-26.4,0-39.6,0c-0.7,0-1.5,0-2.3,0
	c0-16.5,0-32.9,0-49.4c0.5-0.1,1-0.2,1.5-0.2c15.8,0,31.6,0,47.3,0c3.6,0,7.2,0.3,10.7,1.3c9.2,2.7,15.1,9.7,15.8,19.3
	c0.2,3.2,0.1,6.4-0.3,9.5C176.3,181.7,173.5,186.5,168.6,190.2z"/>
<path class="st2" d="M161.7,84.8c4.2,2.2,6.6,5.6,7.8,9.9c1.3,4.7,1.5,9.5,0.6,14.3c-1.6,8.2-6.9,13.1-14.6,15.4
	c-2.6,0.8-5.3,1.1-8,1.2c-14.6,0.1-29.2,0.1-43.8,0.1c-0.5,0-0.9-0.1-1.5-0.1c0-14.6,0-29.1,0-43.7c0.7,0,1.3-0.1,1.9-0.1
	c14.5,0,28.9,0,43.4,0C152.2,81.7,157.1,82.4,161.7,84.8z"/>
</svg>
