<?xml version="1.0" encoding="utf-8"?>
<!-- Generator: Adobe Illustrator 27.3.1, SVG Export Plug-In . SVG Version: 6.00 Build 0)  -->
<svg version="1.1" id="Layer_1" xmlns="http://www.w3.org/2000/svg" xmlns:xlink="http://www.w3.org/1999/xlink" x="0px" y="0px"
	 viewBox="0 0 48 48" style="enable-background:new 0 0 48 48;" xml:space="preserve">
<style type="text/css">
	.st0{fill:#0277BD;}
	.st1{fill:#EBEBEB;}
	.st2{fill:#FFFFFF;}
</style>
<g transform="translate(300, 0)">
	<path class="st0" d="M-288.8,0h25.5C-257,0-252,5-252,11.2v25.5c0,6.2-5,11.2-11.2,11.2h-25.5c-6.2,0-11.2-5-11.2-11.2V11.2
		C-300,5-295,0-288.8,0z"/>
	<path class="st1" d="M-289.9,19.2l0.5,6h13.4v-6H-289.9z"/>
	<path class="st1" d="M-276,7.1L-276,7.1h-15l0.5,6h14.5V7.1z"/>
	<path class="st1" d="M-276,41v-6.2l0,0l-6.7-1.8l-0.4-4.8h-3.2h-2.8l0.8,9.4L-276,41L-276,41z"/>
	<path class="st2" d="M-268.6,25.2l-0.7,7.8l-6.7,1.8V41l12.3-3.4l0.1-1l1.4-15.8l0.1-1.6l1.1-12.1h-15v6h8.4l-0.5,6.1h-7.9v6
		H-268.6z"/>
</g>
</svg>
