<?xml version="1.0" encoding="utf-8"?>
<!-- Generator: Adobe Illustrator 27.3.1, SVG Export Plug-In . SVG Version: 6.00 Build 0)  -->
<svg version="1.1" id="Layer_1" xmlns="http://www.w3.org/2000/svg" xmlns:xlink="http://www.w3.org/1999/xlink" x="0px" y="0px"
	 viewBox="0 0 48 48" style="enable-background:new 0 0 48 48;" xml:space="preserve">
<style type="text/css">
	.st0{fill:#E14E1D;}
	.st1{fill:#FFFFFF;}
	.st2{fill:#EBEBEB;}
</style>
<g transform="translate(0, 0)">
	<path class="st0" d="M11.2,0h25.5C43,0,48,5,48,11.2v25.5C48,43,43,48,36.8,48H11.2C5,48,0,43,0,36.8V11.2C0,5,5,0,11.2,0z"/>
	<path class="st1" d="M9,7.1l1.6,18.1h20.8L30.7,33L24,34.8L17.3,33l-0.4-5h-6l0.9,9.6L24,41l12.3-3.4l1.6-18.4H16.1l-0.5-6.1h22.9
		h0l0.5-6H9z"/>
	<path class="st2" d="M24,7.1H9l1.6,18.1H24v-6h-7.9l-0.5-6.1H24V7.1z"/>
	<path class="st2" d="M24,34.8L24,34.8L17.3,33l-0.4-5h-6l0.9,9.6L24,41l0,0V34.8z"/>
</g>
</svg>
