<svg version="1.1" id="Layer_1" xmlns="http://www.w3.org/2000/svg" xmlns:xlink="http://www.w3.org/1999/xlink" x="0px" y="0px"
	 width="100%" viewBox="0 0 157 279" enable-background="new 0 0 157 279" xml:space="preserve">
<path fill="#FEFDFE" opacity="1.000000" stroke="none" 
	d="
M1.000000,274.000000 
	C1.000000,183.046295 1.000000,92.092598 1.000000,1.069449 
	C53.260326,1.069449 105.520775,1.069449 157.890610,1.069449 
	C157.890610,93.879646 157.890610,186.759460 157.890610,280.000000 
	C107.979683,280.000000 57.958500,280.000000 7.611771,279.688690 
	C16.551563,275.045563 20.181747,267.516479 20.063393,257.581207 
	C19.904696,244.259567 20.025646,230.934586 20.026402,217.611053 
	C20.026636,213.493256 20.026438,209.375443 20.026438,205.113647 
	C16.570662,205.113647 13.671300,205.113647 10.293665,205.113647 
	C10.293665,211.856110 10.294917,218.316025 10.293391,224.775955 
	C10.290637,236.434036 10.392847,248.093491 10.245206,259.749756 
	C10.145922,267.588196 7.271872,271.754791 1.000000,274.000000 
M116.592117,221.014618 
	C114.747650,221.683441 112.903183,222.352280 110.649269,223.169571 
	C111.171890,225.096268 111.614296,226.727219 112.085243,228.463409 
	C114.583939,227.873077 116.494682,227.334213 118.439606,226.986679 
	C120.397537,226.636795 122.385780,226.306885 124.367126,226.264130 
	C132.130295,226.096619 135.050720,229.918915 133.103195,237.792725 
	C130.857758,237.902847 128.486221,237.714966 126.259048,238.195801 
	C122.400215,239.028931 118.357140,239.730988 114.885841,241.473282 
	C109.196251,244.328949 107.077080,250.569138 108.822838,256.856903 
	C110.319069,262.245911 114.366302,265.448059 120.971748,264.884003 
	C125.710373,264.479370 130.314575,262.500641 135.009003,261.215881 
	C135.485565,265.837524 139.286224,263.964966 142.701675,263.958405 
	C142.701675,252.665848 143.029129,241.559082 142.571350,230.484772 
	C142.321259,224.434601 137.992477,220.464142 131.738693,220.051270 
	C127.000023,219.738464 122.187141,220.549561 116.592117,221.014618 
M50.203270,261.817993 
	C51.034092,261.296021 51.864918,260.774048 52.719582,260.237122 
	C54.693748,264.806885 54.693748,264.806885 60.897968,263.414795 
	C60.897968,252.666519 61.070282,241.857101 60.826572,231.057098 
	C60.701355,225.508026 57.388523,221.611404 51.907959,220.406631 
	C44.064949,218.682510 36.438385,219.697174 28.827282,223.330566 
	C29.311394,225.095947 29.728491,226.616943 30.162455,228.199463 
	C34.244022,227.513809 37.963249,226.575562 41.728725,226.320694 
	C49.960716,225.763474 52.747654,229.101013 51.413044,237.756088 
	C49.349022,237.860107 47.152485,237.670532 45.105373,238.136902 
	C40.930946,239.087875 36.531731,239.790344 32.781708,241.692490 
	C27.199284,244.524078 25.208384,251.049652 27.062809,257.292206 
	C28.527739,262.223572 32.782188,265.288208 39.124340,264.921387 
	C42.643059,264.717865 46.082981,263.152008 50.203270,261.817993 
M71.005363,97.484688 
	C68.556030,93.725830 65.902748,90.082253 63.699348,86.184372 
	C58.945137,77.774025 59.482384,69.463440 65.585129,62.006741 
	C68.925072,57.925797 73.239044,54.658646 76.881012,50.804558 
	C83.128731,44.192940 89.761696,37.831738 95.168320,30.572496 
	C100.087204,23.968122 101.478897,15.963914 98.751137,7.784654 
	C98.253723,6.293162 97.107704,5.017976 96.261101,3.642938 
	C96.343170,18.835888 93.290329,26.018774 81.418404,36.396179 
	C76.538788,40.661522 71.209213,44.415836 66.376091,48.729523 
	C62.053848,52.587238 57.844193,56.650860 54.113884,61.070171 
	C50.181450,65.728935 49.697987,71.286575 51.786766,77.061928 
	C54.604656,84.853241 66.558861,99.044449 75.024345,103.887329 
	C73.447922,101.358322 72.429001,99.723701 71.005363,97.484688 
M72.599350,241.017853 
	C74.650314,247.686462 76.548195,254.409363 78.878067,260.979065 
	C79.358994,262.335175 81.447502,264.023132 82.797638,264.025360 
	C92.934021,264.042297 90.175423,265.735260 94.194489,256.737640 
	C94.803619,255.373947 95.409676,253.992172 95.830688,252.563812 
	C98.910835,242.113876 101.943390,231.649933 105.151573,220.639175 
	C100.962440,220.639175 98.090393,220.639175 95.605461,220.639175 
	C92.763191,231.922485 90.022224,242.803635 87.281258,253.684784 
	C83.562119,244.833115 80.951584,236.269485 78.318611,227.712784 
	C75.813805,219.572556 75.803497,219.575729 66.449203,220.790405 
	C68.417160,227.332581 70.362961,233.801132 72.599350,241.017853 
M136.410461,170.925400 
	C136.674072,169.263031 136.937683,167.600647 137.184753,166.042557 
	C134.224701,168.358047 132.205154,170.535675 129.713730,171.723648 
	C127.062325,172.987885 123.997604,173.506775 121.055649,174.021011 
	C97.468819,178.143860 73.667137,178.765640 49.839363,177.581345 
	C40.908066,177.137466 32.031902,175.336685 23.171263,173.903198 
	C21.106953,173.569214 19.208412,172.210602 17.233599,171.323441 
	C17.238277,170.798309 17.242958,170.273193 17.247637,169.748077 
	C20.725098,168.002716 24.202557,166.257355 27.680017,164.511993 
	C27.481855,164.000076 27.283695,163.488159 27.085535,162.976257 
	C22.248201,164.465881 17.189135,165.483780 12.653687,167.615646 
	C9.765298,168.973328 7.653402,171.982971 5.193334,174.251892 
	C8.118151,175.822159 10.890328,178.300491 13.991473,178.821793 
	C43.896015,183.848587 73.956871,184.943253 104.054840,180.806381 
	C115.068672,179.292572 126.202621,177.692917 136.410461,170.925400 
M77.145264,80.132774 
	C78.683884,83.063538 79.782921,86.358322 81.848518,88.852692 
	C86.839317,94.879471 90.908203,100.859001 85.284775,109.416946 
	C96.636520,105.187958 100.536377,93.841248 94.683174,85.166664 
	C93.289116,83.100647 91.751938,81.128479 90.411156,79.029739 
	C85.348030,71.104393 85.617714,65.539017 92.511856,59.025093 
	C97.549347,54.265419 103.440002,50.407993 108.957581,46.157772 
	C109.982872,45.367981 111.042557,44.622829 112.086365,43.857075 
	C111.756454,43.385242 111.426544,42.913406 111.096634,42.441570 
	C98.962624,47.103939 86.951691,52.043179 79.203194,63.571518 
	C75.987526,68.355827 75.303436,73.741974 77.145264,80.132774 
M97.289452,154.033340 
	C95.543602,153.903809 93.731194,153.403946 92.062538,153.703873 
	C79.699211,155.926025 67.297058,156.440979 54.895981,154.400375 
	C52.230206,153.961700 49.779629,152.215240 45.899624,150.474335 
	C45.081413,151.373886 41.744080,153.502365 41.941914,155.224792 
	C42.176605,157.268143 45.452854,158.964157 47.419720,160.801331 
	C47.532303,160.906479 47.721764,160.933441 47.879044,160.986038 
	C67.130684,167.424225 85.997940,165.550430 105.751938,158.431824 
	C102.554832,156.779678 100.260773,155.594193 97.289452,154.033340 
M35.360130,109.002731 
	C33.011246,109.838837 30.482714,110.363686 28.358791,111.589554 
	C25.682678,113.134125 23.337044,115.251282 20.848827,117.121399 
	C23.771336,118.427193 26.581890,120.448395 29.633999,120.926018 
	C54.874294,124.875854 80.023956,123.768349 105.021637,118.756111 
	C107.088692,118.341644 108.991142,117.106194 110.970070,116.252197 
	C110.831924,115.778824 110.693779,115.305443 110.555634,114.832062 
	C107.514900,115.068581 104.478073,115.397316 101.432785,115.526573 
	C82.515190,116.329544 63.599125,117.207329 44.673656,117.750252 
	C41.282459,117.847534 37.849815,116.499977 34.436306,115.819534 
	C34.370087,115.146187 34.303867,114.472832 34.237648,113.799477 
	C37.992783,111.983757 41.747917,110.168037 45.503052,108.352318 
	C45.435764,108.092209 45.368477,107.832100 45.301193,107.571991 
	C42.240246,107.988976 39.179302,108.405960 35.360130,109.002731 
M48.815609,135.113663 
	C46.370480,133.736832 43.925354,132.359985 40.247238,130.288849 
	C39.415253,131.199524 37.642235,133.140244 35.869217,135.080963 
	C37.755772,136.741287 39.421902,138.829971 41.588993,139.945114 
	C43.895905,141.132217 46.648083,141.553207 49.256065,142.039230 
	C61.835735,144.383591 74.474258,144.126923 87.072853,142.345703 
	C94.087944,141.353897 101.028435,139.834351 108.566574,138.448990 
	C104.090324,133.774841 99.832115,132.905655 94.432526,134.006378 
	C79.626923,137.024582 64.649734,137.034470 48.815609,135.113663 
M58.575481,189.085266 
	C52.831173,189.085266 47.086864,189.085266 41.342556,189.085266 
	C43.001385,190.252945 44.740761,190.661972 46.503571,190.843781 
	C67.776428,193.037476 89.079803,193.266937 110.283852,190.473969 
	C118.801277,189.352081 127.235321,187.118362 135.482086,184.640945 
	C139.102310,183.553360 142.159149,180.590408 145.471802,178.479004 
	C145.194000,178.036362 144.916183,177.593719 144.638382,177.151077 
	C139.085526,179.095612 133.637634,181.446304 127.961334,182.913086 
	C105.518768,188.712402 82.598961,189.688339 58.575481,189.085266 
M138.143860,118.487823 
	C136.741745,129.698776 127.540154,134.107422 119.594048,139.667084 
	C125.742172,140.261002 136.896286,134.565155 142.180023,128.146667 
	C145.794281,123.756210 147.474274,118.838593 145.221207,113.349869 
	C142.902863,107.702217 138.136902,105.004105 132.312927,104.669235 
	C128.839630,104.469513 125.304665,105.342422 121.797424,105.733147 
	C134.562057,108.190765 136.900620,109.784515 138.143860,118.487823 
z"/>
<path fill="#E32B2D" opacity="1.000000" stroke="none" 
	d="
M1.000000,274.499481 
	C7.271872,271.754791 10.145922,267.588196 10.245206,259.749756 
	C10.392847,248.093491 10.290637,236.434036 10.293391,224.775955 
	C10.294917,218.316025 10.293665,211.856110 10.293665,205.113647 
	C13.671300,205.113647 16.570662,205.113647 20.026438,205.113647 
	C20.026438,209.375443 20.026636,213.493256 20.026402,217.611053 
	C20.025646,230.934586 19.904696,244.259567 20.063393,257.581207 
	C20.181747,267.516479 16.551563,275.045563 7.143114,279.688690 
	C5.086776,280.000000 3.173552,280.000000 1.000000,280.000000 
	C1.000000,278.336578 1.000000,276.667755 1.000000,274.499481 
z"/>
<path fill="#E2292B" opacity="1.000000" stroke="none" 
	d="
M116.999702,220.937576 
	C122.187141,220.549561 127.000023,219.738464 131.738693,220.051270 
	C137.992477,220.464142 142.321259,224.434601 142.571350,230.484772 
	C143.029129,241.559082 142.701675,252.665848 142.701675,263.958405 
	C139.286224,263.964966 135.485565,265.837524 135.009003,261.215881 
	C130.314575,262.500641 125.710373,264.479370 120.971748,264.884003 
	C114.366302,265.448059 110.319069,262.245911 108.822838,256.856903 
	C107.077080,250.569138 109.196251,244.328949 114.885841,241.473282 
	C118.357140,239.730988 122.400215,239.028931 126.259048,238.195801 
	C128.486221,237.714966 130.857758,237.902847 133.103195,237.792725 
	C135.050720,229.918915 132.130295,226.096619 124.367126,226.264130 
	C122.385780,226.306885 120.397537,226.636795 118.439606,226.986679 
	C116.494682,227.334213 114.583939,227.873077 112.085243,228.463409 
	C111.614296,226.727219 111.171890,225.096268 110.649269,223.169571 
	C112.903183,222.352280 114.747650,221.683441 116.999702,220.937576 
M117.251244,252.303375 
	C118.976311,257.751740 121.659164,259.681091 126.760941,257.944214 
	C134.374695,255.352158 134.768173,254.840851 133.375092,244.315094 
	C123.124435,242.769547 118.906059,244.651840 117.251244,252.303375 
z"/>
<path fill="#E2282A" opacity="1.000000" stroke="none" 
	d="
M49.880844,262.009094 
	C46.082981,263.152008 42.643059,264.717865 39.124340,264.921387 
	C32.782188,265.288208 28.527739,262.223572 27.062809,257.292206 
	C25.208384,251.049652 27.199284,244.524078 32.781708,241.692490 
	C36.531731,239.790344 40.930946,239.087875 45.105373,238.136902 
	C47.152485,237.670532 49.349022,237.860107 51.413044,237.756088 
	C52.747654,229.101013 49.960716,225.763474 41.728725,226.320694 
	C37.963249,226.575562 34.244022,227.513809 30.162455,228.199463 
	C29.728491,226.616943 29.311394,225.095947 28.827282,223.330566 
	C36.438385,219.697174 44.064949,218.682510 51.907959,220.406631 
	C57.388523,221.611404 60.701355,225.508026 60.826572,231.057098 
	C61.070282,241.857101 60.897968,252.666519 60.897968,263.414795 
	C54.693748,264.806885 54.693748,264.806885 52.719582,260.237122 
	C51.864918,260.774048 51.034092,261.296021 49.880844,262.009094 
M41.408337,244.418747 
	C36.191013,246.698273 34.433929,249.956253 35.998528,254.449600 
	C37.211845,257.934143 41.061939,259.284271 45.726963,257.861084 
	C51.827843,255.999863 53.388348,252.049561 51.099586,243.746140 
	C48.192421,243.897675 45.215633,244.052856 41.408337,244.418747 
z"/>
<path fill="#E22A2C" opacity="1.000000" stroke="none" 
	d="
M71.207726,97.786888 
	C72.429001,99.723701 73.447922,101.358322 75.024345,103.887329 
	C66.558861,99.044449 54.604656,84.853241 51.786766,77.061928 
	C49.697987,71.286575 50.181450,65.728935 54.113884,61.070171 
	C57.844193,56.650860 62.053848,52.587238 66.376091,48.729523 
	C71.209213,44.415836 76.538788,40.661522 81.418404,36.396179 
	C93.290329,26.018774 96.343170,18.835888 96.261101,3.642938 
	C97.107704,5.017976 98.253723,6.293162 98.751137,7.784654 
	C101.478897,15.963914 100.087204,23.968122 95.168320,30.572496 
	C89.761696,37.831738 83.128731,44.192940 76.881012,50.804558 
	C73.239044,54.658646 68.925072,57.925797 65.585129,62.006741 
	C59.482384,69.463440 58.945137,77.774025 63.699348,86.184372 
	C65.902748,90.082253 68.556030,93.725830 71.207726,97.786888 
z"/>
<path fill="#E2292B" opacity="1.000000" stroke="none" 
	d="
M72.454056,240.643768 
	C70.362961,233.801132 68.417160,227.332581 66.449203,220.790405 
	C75.803497,219.575729 75.813805,219.572556 78.318611,227.712784 
	C80.951584,236.269485 83.562119,244.833115 87.281258,253.684784 
	C90.022224,242.803635 92.763191,231.922485 95.605461,220.639175 
	C98.090393,220.639175 100.962440,220.639175 105.151573,220.639175 
	C101.943390,231.649933 98.910835,242.113876 95.830688,252.563812 
	C95.409676,253.992172 94.803619,255.373947 94.194489,256.737640 
	C90.175423,265.735260 92.934021,264.042297 82.797638,264.025360 
	C81.447502,264.023132 79.358994,262.335175 78.878067,260.979065 
	C76.548195,254.409363 74.650314,247.686462 72.454056,240.643768 
z"/>
<path fill="#1A78BB" opacity="1.000000" stroke="none" 
	d="
M136.141968,171.166092 
	C126.202621,177.692917 115.068672,179.292572 104.054840,180.806381 
	C73.956871,184.943253 43.896015,183.848587 13.991473,178.821793 
	C10.890328,178.300491 8.118151,175.822159 5.193335,174.251892 
	C7.653402,171.982971 9.765298,168.973328 12.653687,167.615646 
	C17.189135,165.483780 22.248201,164.465881 27.085535,162.976257 
	C27.283695,163.488159 27.481855,164.000076 27.680017,164.511993 
	C24.202557,166.257355 20.725098,168.002716 17.247637,169.748077 
	C17.242958,170.273193 17.238277,170.798309 17.233599,171.323441 
	C19.208412,172.210602 21.106953,173.569214 23.171263,173.903198 
	C32.031902,175.336685 40.908066,177.137466 49.839363,177.581345 
	C73.667137,178.765640 97.468819,178.143860 121.055649,174.021011 
	C123.997604,173.506775 127.062325,172.987885 129.713730,171.723648 
	C132.205154,170.535675 134.224701,168.358047 137.184753,166.042557 
	C136.937683,167.600647 136.674072,169.263031 136.141968,171.166092 
z"/>
<path fill="#E2292B" opacity="1.000000" stroke="none" 
	d="
M77.047546,79.737267 
	C75.303436,73.741974 75.987526,68.355827 79.203194,63.571518 
	C86.951691,52.043179 98.962624,47.103939 111.096634,42.441570 
	C111.426544,42.913406 111.756454,43.385242 112.086365,43.857075 
	C111.042557,44.622829 109.982872,45.367981 108.957581,46.157772 
	C103.440002,50.407993 97.549347,54.265419 92.511856,59.025093 
	C85.617714,65.539017 85.348030,71.104393 90.411156,79.029739 
	C91.751938,81.128479 93.289116,83.100647 94.683174,85.166664 
	C100.536377,93.841248 96.636520,105.187958 85.284775,109.416946 
	C90.908203,100.859001 86.839317,94.879471 81.848518,88.852692 
	C79.782921,86.358322 78.683884,83.063538 77.047546,79.737267 
z"/>
<path fill="#1676B9" opacity="1.000000" stroke="none" 
	d="
M97.628082,154.221039 
	C100.260773,155.594193 102.554832,156.779678 105.751938,158.431824 
	C85.997940,165.550430 67.130684,167.424225 47.879044,160.986038 
	C47.721764,160.933441 47.532303,160.906479 47.419720,160.801331 
	C45.452854,158.964157 42.176605,157.268143 41.941914,155.224792 
	C41.744080,153.502365 45.081413,151.373886 45.899624,150.474335 
	C49.779629,152.215240 52.230206,153.961700 54.895981,154.400375 
	C67.297058,156.440979 79.699211,155.926025 92.062538,153.703873 
	C93.731194,153.403946 95.543602,153.903809 97.628082,154.221039 
z"/>
<path fill="#1D79BB" opacity="1.000000" stroke="none" 
	d="
M35.739243,108.912842 
	C39.179302,108.405960 42.240246,107.988976 45.301193,107.571991 
	C45.368477,107.832100 45.435764,108.092209 45.503052,108.352318 
	C41.747917,110.168037 37.992783,111.983757 34.237648,113.799477 
	C34.303867,114.472832 34.370087,115.146187 34.436306,115.819534 
	C37.849815,116.499977 41.282459,117.847534 44.673656,117.750252 
	C63.599125,117.207329 82.515190,116.329544 101.432785,115.526573 
	C104.478073,115.397316 107.514900,115.068581 110.555634,114.832062 
	C110.693779,115.305443 110.831924,115.778824 110.970070,116.252197 
	C108.991142,117.106194 107.088692,118.341644 105.021637,118.756111 
	C80.023956,123.768349 54.874294,124.875854 29.633999,120.926018 
	C26.581890,120.448395 23.771336,118.427193 20.848827,117.121399 
	C23.337044,115.251282 25.682678,113.134125 28.358791,111.589554 
	C30.482714,110.363686 33.011246,109.838837 35.739243,108.912842 
z"/>
<path fill="#1A78BB" opacity="1.000000" stroke="none" 
	d="
M49.241669,135.153152 
	C64.649734,137.034470 79.626923,137.024582 94.432526,134.006378 
	C99.832115,132.905655 104.090324,133.774841 108.566574,138.448990 
	C101.028435,139.834351 94.087944,141.353897 87.072853,142.345703 
	C74.474258,144.126923 61.835735,144.383591 49.256065,142.039230 
	C46.648083,141.553207 43.895905,141.132217 41.588993,139.945114 
	C39.421902,138.829971 37.755772,136.741287 35.869217,135.080963 
	C37.642235,133.140244 39.415253,131.199524 40.247238,130.288849 
	C43.925354,132.359985 46.370480,133.736832 49.241669,135.153152 
z"/>
<path fill="#237EBD" opacity="1.000000" stroke="none" 
	d="
M59.065765,189.087479 
	C82.598961,189.688339 105.518768,188.712402 127.961334,182.913086 
	C133.637634,181.446304 139.085526,179.095612 144.638382,177.151077 
	C144.916183,177.593719 145.194000,178.036362 145.471802,178.479004 
	C142.159149,180.590408 139.102310,183.553360 135.482086,184.640945 
	C127.235321,187.118362 118.801277,189.352081 110.283852,190.473969 
	C89.079803,193.266937 67.776428,193.037476 46.503571,190.843781 
	C44.740761,190.661972 43.001385,190.252945 41.342556,189.085266 
	C47.086864,189.085266 52.831173,189.085266 59.065765,189.087479 
z"/>
<path fill="#1A78BB" opacity="1.000000" stroke="none" 
	d="
M138.143997,118.074982 
	C136.900620,109.784515 134.562057,108.190765 121.797424,105.733147 
	C125.304665,105.342422 128.839630,104.469513 132.312927,104.669235 
	C138.136902,105.004105 142.902863,107.702217 145.221207,113.349869 
	C147.474274,118.838593 145.794281,123.756210 142.180023,128.146667 
	C136.896286,134.565155 125.742172,140.261002 119.594048,139.667084 
	C127.540154,134.107422 136.741745,129.698776 138.143997,118.074982 
z"/>
<path fill="#FEF7F7" opacity="1.000000" stroke="none" 
	d="
M117.229141,251.916428 
	C118.906059,244.651840 123.124435,242.769547 133.375092,244.315094 
	C134.768173,254.840851 134.374695,255.352158 126.760941,257.944214 
	C121.659164,259.681091 118.976311,257.751740 117.229141,251.916428 
z"/>
<path fill="#FEF9F9" opacity="1.000000" stroke="none" 
	d="
M41.823593,244.313385 
	C45.215633,244.052856 48.192421,243.897675 51.099586,243.746140 
	C53.388348,252.049561 51.827843,255.999863 45.726963,257.861084 
	C41.061939,259.284271 37.211845,257.934143 35.998528,254.449600 
	C34.433929,249.956253 36.191013,246.698273 41.823593,244.313385 
z"/>
</svg>