<svg version="1.1" id="Layer_1" xmlns="http://www.w3.org/2000/svg" xmlns:xlink="http://www.w3.org/1999/xlink" x="0px" y="0px"
	 width="100%" viewBox="0 0 474 555" enable-background="new 0 0 474 555" xml:space="preserve">
<path fill="#FDFDFD" opacity="1.000000" stroke="none" 
	d="
M475.000000,167.000000 
	C475.000000,297.000000 475.000000,426.500000 475.000000,556.000000 
	C317.000000,556.000000 159.000000,556.000000 1.000000,556.000000 
	C1.000000,371.000000 1.000000,186.000000 1.000000,1.000000 
	C159.000000,1.000000 317.000000,1.000000 475.000000,1.000000 
	C475.000000,56.166668 475.000000,111.333336 475.000000,167.000000 
M374.500000,2.999714 
	C252.681534,2.999744 130.863052,3.026542 9.044719,2.899119 
	C4.313516,2.894170 2.891604,4.040173 2.895010,8.925428 
	C3.020123,188.403809 2.999765,367.882294 3.002281,547.360779 
	C3.002374,553.985413 3.016246,553.997986 9.691024,553.998108 
	C162.172745,554.000488 314.654480,553.983826 467.136139,554.082031 
	C471.500885,554.084839 473.114655,553.233643 473.111115,548.393616 
	C472.979004,368.415253 472.983063,188.436798 473.096771,8.458452 
	C473.099579,4.003208 471.863434,2.874663 467.488373,2.901212 
	C436.826508,3.087271 406.162994,2.999733 374.500000,2.999714 
z"/>
<path fill="#F7F8F8" opacity="1.000000" stroke="none" 
	d="
M375.000000,2.999714 
	C406.162994,2.999733 436.826508,3.087271 467.488373,2.901212 
	C471.863434,2.874663 473.099579,4.003208 473.096771,8.458452 
	C472.983063,188.436798 472.979004,368.415253 473.111115,548.393616 
	C473.114655,553.233643 471.500885,554.084839 467.136139,554.082031 
	C314.654480,553.983826 162.172745,554.000488 9.691024,553.998108 
	C3.016246,553.997986 3.002374,553.985413 3.002281,547.360779 
	C2.999765,367.882294 3.020123,188.403809 2.895010,8.925428 
	C2.891604,4.040173 4.313516,2.894170 9.044719,2.899119 
	C130.863052,3.026542 252.681534,2.999744 375.000000,2.999714 
M251.122757,532.250549 
	C251.314621,532.049988 251.506485,531.849426 251.669434,531.713013 
	C251.669434,531.713013 251.740204,531.721619 252.432236,531.682434 
	C254.281448,530.766296 256.130676,529.850220 258.505310,528.947327 
	C258.736145,528.701660 258.967010,528.455933 259.880249,528.027344 
	C277.320831,517.649536 294.786804,507.313995 312.195282,496.882629 
	C331.870026,485.093292 351.493195,473.217865 371.855042,461.212372 
	C387.739380,451.662018 403.623749,442.111633 420.071320,432.449066 
	C420.512970,432.103241 420.954590,431.757385 422.017120,431.296234 
	C423.042694,430.617950 424.068268,429.939636 425.800232,429.107727 
	C429.791016,426.757080 433.815735,424.461884 437.764801,422.043121 
	C444.116272,418.152893 449.061432,412.965149 452.530670,405.672760 
	C452.660706,405.113373 452.790741,404.553986 453.139801,403.581482 
	C453.139801,403.581482 453.070496,403.119324 453.491150,402.616577 
	C454.381317,400.389465 455.271484,398.162323 456.220306,395.277191 
	C456.141052,394.843964 456.061768,394.410736 456.435608,393.377411 
	C456.891174,390.697327 457.741791,388.017639 457.744690,385.337067 
	C457.821167,314.911926 457.775360,244.486603 457.862946,174.061478 
	C457.872528,166.351425 456.166138,159.254440 452.336945,152.269669 
	C452.336945,152.269669 452.122009,151.994110 451.807770,151.362091 
	C448.288269,147.250412 445.402313,142.238739 441.113708,139.219574 
	C432.886627,133.427750 423.863403,128.766785 414.717560,123.150261 
	C412.865753,122.368690 411.013916,121.587128 409.009491,120.908684 
	C409.009491,120.908684 409.182587,120.845718 409.048004,120.174309 
	C408.480743,119.599304 408.004150,118.872681 407.333038,118.471436 
	C389.859589,108.024399 372.384338,97.580032 354.857025,87.223846 
	C352.052124,85.566551 348.998657,84.330032 346.000458,82.974297 
	C346.000458,82.974297 346.087891,82.934509 345.774780,82.332382 
	C345.143585,81.799950 344.572266,81.167107 343.872528,80.749557 
	C315.825500,64.013680 287.845306,47.162762 259.632263,30.711191 
	C254.944382,27.977600 249.234818,26.996151 243.327423,25.061302 
	C242.872955,25.087341 242.418472,25.113382 241.256699,24.803041 
	C235.838242,25.563194 230.419800,26.323345 224.258606,27.010736 
	C222.579086,27.695032 220.781784,28.180532 219.238571,29.094893 
	C206.252441,36.789280 193.276581,44.502518 180.374268,52.336288 
	C173.769516,56.346424 167.321442,60.614548 160.782364,64.884995 
	C160.782364,64.884995 160.847031,64.783180 160.115433,64.782875 
	C150.701767,70.376907 141.288101,75.970947 131.184387,81.820610 
	C120.462929,88.133171 109.721230,94.411652 99.024406,100.765678 
	C79.037140,112.638290 59.043724,124.501175 39.118015,136.476501 
	C29.744371,142.110062 23.731941,150.377029 20.391584,161.518311 
	C19.918602,164.461304 19.035820,167.403839 19.032602,170.347336 
	C18.953104,243.049805 18.920879,315.752441 19.044882,388.454742 
	C19.055603,394.740692 20.290070,400.997986 24.830193,406.763458 
	C29.300207,411.754761 32.926121,418.100006 38.385849,421.503815 
	C62.468834,436.518005 87.080147,450.684784 111.940125,465.702393 
	C117.957352,469.138702 123.974579,472.575012 130.325211,476.596405 
	C132.508179,477.841370 134.691132,479.086365 137.147675,480.738037 
	C137.612885,480.871948 138.078094,481.005859 138.871841,481.641693 
	C139.244705,481.766602 139.617569,481.891510 140.293915,482.495605 
	C140.635834,482.636688 140.977753,482.777802 141.748093,483.390228 
	C144.496902,484.928589 147.245697,486.466980 150.397003,488.539398 
	C172.253784,501.469177 194.110580,514.398926 216.401398,527.820251 
	C218.417908,528.864380 220.434418,529.908447 222.507416,531.109375 
	C222.507416,531.109375 222.397507,531.020081 223.186768,531.397339 
	C224.299377,531.641968 225.412003,531.886536 227.098328,532.595703 
	C228.720016,533.000732 230.341705,533.405701 232.792450,534.003662 
	C234.204544,533.945251 235.616623,533.886780 237.925629,533.986511 
	C241.803207,533.425171 245.680771,532.863831 250.039139,532.453857 
	C250.340210,532.327881 250.641281,532.201843 251.122757,532.250549 
z"/>
<path fill="#649AD2" opacity="1.000000" stroke="none" 
	d="
M452.122009,151.994110 
	C452.122009,151.994110 452.336945,152.269669 452.033081,152.482407 
	C451.526794,152.712585 451.324341,152.730011 450.755127,152.800919 
	C445.072388,155.935852 439.723083,158.961456 434.446259,162.108490 
	C412.606079,175.133682 390.787842,188.195618 368.667999,201.319687 
	C367.612183,201.687271 366.849884,201.979248 365.951904,201.926620 
	C361.954163,195.750778 357.463593,190.230515 354.386322,184.010971 
	C350.377686,175.909012 343.537598,170.683853 337.229553,164.895950 
	C334.921783,162.778442 331.629395,161.733994 328.868713,160.215973 
	C328.951233,160.231934 328.782776,160.233673 328.824585,159.847595 
	C328.130524,153.985168 324.049927,153.469238 319.718201,153.231079 
	C319.703033,153.158936 319.776764,153.286636 319.728058,152.934875 
	C315.092590,149.816956 310.198151,147.450439 305.981201,144.203934 
	C296.330902,136.774460 285.168732,133.462311 273.601135,130.622269 
	C258.935760,127.021660 244.222656,124.801323 229.097488,125.980446 
	C227.111206,126.135300 224.870682,125.645607 224.646988,128.875504 
	C223.872772,128.973175 223.421814,128.965408 222.680740,128.671814 
	C214.267136,129.423477 206.014359,129.882019 198.056015,131.659103 
	C189.874466,133.486038 181.948196,136.506378 173.990158,139.237442 
	C172.567703,139.725616 171.534882,141.348083 170.321167,142.445724 
	C169.378708,143.298065 168.524017,144.283020 167.477341,144.978989 
	C158.743042,150.786789 149.114792,155.595886 141.442490,162.563187 
	C132.833786,170.380829 125.953064,180.109421 118.436958,189.103882 
	C117.936180,189.703156 118.419846,191.125092 118.448784,192.384766 
	C118.451935,192.605133 118.284462,193.012848 117.887299,193.029846 
	C115.455307,193.320724 113.420486,193.594620 112.294250,193.746216 
	C111.305634,197.072906 110.716759,200.093521 109.527252,202.855469 
	C106.397812,210.121887 102.914810,217.236404 99.809402,224.512466 
	C99.278290,225.756897 99.915657,227.500031 99.970703,229.367111 
	C99.725296,230.147583 99.522415,230.573730 99.066467,231.092896 
	C98.570854,231.837845 98.328300,232.489761 98.152893,233.461807 
	C98.082291,234.184326 97.944542,234.586700 97.588982,235.000900 
	C97.282753,235.349625 97.194321,235.686539 97.169746,236.422638 
	C97.101334,237.886047 96.969070,238.950272 96.451828,240.019592 
	C95.045662,241.421768 93.340652,242.721817 93.126152,244.233398 
	C92.353691,249.676743 92.868340,255.398651 91.483131,260.641876 
	C86.512840,279.455231 89.846535,298.040833 93.999557,316.103271 
	C97.162407,329.859314 103.978966,342.775299 109.096382,356.266174 
	C109.022751,356.467377 108.933121,356.886353 108.591446,356.961487 
	C93.907295,365.643738 79.592636,374.297699 65.213951,382.843903 
	C52.687202,390.289368 40.088196,397.613251 27.202682,404.897339 
	C22.611986,398.858582 22.399435,391.908508 22.320797,385.005371 
	C23.105177,385.001099 23.553236,384.999939 24.320335,384.973999 
	C25.426653,384.632782 26.213930,384.316376 27.330074,384.138367 
	C32.898792,385.214539 30.902218,381.081451 30.906084,379.102234 
	C31.018583,321.487640 30.997120,263.872833 30.997076,206.258026 
	C30.997068,197.765671 30.946037,189.272842 31.024654,180.781219 
	C31.051323,177.900818 30.535124,175.750656 26.809662,175.756195 
	C25.418030,175.676041 24.215458,175.838989 22.751118,176.107468 
	C21.991308,176.475616 21.493265,176.738220 20.993893,176.543915 
	C21.145369,172.504562 21.298174,168.922119 21.450979,165.339691 
	C22.069857,165.183197 22.688734,165.026703 23.307611,164.870224 
	C23.751619,166.060593 24.195627,167.250946 24.792711,168.851715 
	C28.735538,163.647247 26.016123,161.784485 23.129551,159.699432 
	C28.100121,153.028442 30.390425,144.956528 38.423923,140.776886 
	C46.543339,136.552536 53.746033,130.604706 61.584324,125.793083 
	C75.638588,117.165741 89.847031,108.788185 104.048126,100.402893 
	C106.099854,99.191422 108.468262,98.516266 110.690132,97.592926 
	C113.718079,94.338799 124.806297,86.913551 130.321686,85.937515 
	C131.094986,85.271179 131.548096,84.637459 132.000610,84.001862 
	C132.000000,84.000000 132.003662,84.001320 132.356369,83.964584 
	C137.815811,80.742020 143.020432,77.700706 147.999954,74.327118 
	C152.412354,71.337738 156.574448,67.978920 160.847031,64.783188 
	C160.847031,64.783180 160.782364,64.884995 161.182999,64.902176 
	C163.132034,64.403938 164.813461,64.123253 166.206467,63.333687 
	C173.367401,59.274796 180.497910,55.158012 187.556488,50.923790 
	C197.681763,44.849949 207.738220,38.661312 217.818192,32.512074 
	C220.230850,31.040251 222.620377,29.530521 225.470825,28.025661 
	C231.268738,27.055206 236.616379,26.097315 241.964005,25.139423 
	C242.418472,25.113382 242.872955,25.087341 243.745178,25.469894 
	C246.194946,26.853249 248.290482,27.715742 250.247498,28.823074 
	C257.112793,32.707668 263.902832,36.725479 270.774078,40.599339 
	C277.318115,44.288708 284.003174,47.732460 290.490173,51.517387 
	C298.819550,56.377285 307.083557,61.358253 315.239838,66.502563 
	C320.484741,69.810616 325.201752,74.060440 330.679901,76.862679 
	C335.543365,79.350479 339.831299,83.831215 346.087891,82.934509 
	C346.087891,82.934509 346.000458,82.974297 346.053528,83.288528 
	C347.310303,84.686646 348.375916,86.001503 349.739990,86.817299 
	C359.234314,92.495514 368.809143,98.038963 378.319794,103.690102 
	C383.814270,106.954865 390.003235,109.551262 394.475159,113.894547 
	C398.866425,118.159523 404.054382,119.056244 409.182587,120.845718 
	C409.182587,120.845718 409.009491,120.908684 409.029877,121.154510 
	C409.035370,121.600624 409.020508,121.800911 409.111572,122.220299 
	C409.415283,122.713028 409.675873,122.898415 410.319183,123.027603 
	C411.428894,123.706047 412.218689,124.352448 413.241119,125.270584 
	C419.531281,128.905609 425.840332,131.894211 431.572144,135.742645 
	C436.799316,139.252274 441.376160,143.724258 446.290283,147.709641 
	C448.161591,149.227310 450.173950,150.571091 452.122009,151.994110 
z"/>
<path fill="#02599F" opacity="1.000000" stroke="none" 
	d="
M368.961548,201.244064 
	C390.787842,188.195618 412.606079,175.133682 434.446259,162.108490 
	C439.723083,158.961456 445.072388,155.935852 450.764679,153.177246 
	C451.424622,155.569534 451.025299,158.145126 452.115814,159.616501 
	C455.863770,164.673325 456.090576,170.336502 456.064209,176.173660 
	C455.738037,248.396637 455.419556,320.619659 455.058777,393.258301 
	C455.022919,394.506714 455.027374,395.339447 454.975189,396.498444 
	C454.838715,397.258789 454.758881,397.692932 454.503601,398.244141 
	C454.137482,398.590424 454.044952,398.854095 453.902344,399.429230 
	C453.453674,400.479584 453.153229,401.253021 452.646667,402.176086 
	C452.600616,402.882019 452.760712,403.438324 452.920776,403.994598 
	C452.790741,404.553986 452.660706,405.113373 452.107758,405.597961 
	C450.793915,405.375275 449.903015,405.227325 448.804565,404.797516 
	C436.590942,397.597168 424.501465,390.818573 412.599487,383.725372 
	C397.304047,374.609741 382.159119,365.241516 366.953674,355.621887 
	C365.612793,353.695160 364.546631,351.678802 362.873505,350.641022 
	C356.102692,346.441406 349.195374,342.451721 342.218323,338.602356 
	C340.623840,337.722656 338.550659,337.710571 336.797119,337.231079 
	C336.896393,337.162994 336.740295,337.346313 336.745148,337.064728 
	C336.509430,336.508545 336.268890,336.233978 335.966705,335.623901 
	C329.858337,331.465881 323.781860,327.689209 317.778839,323.799133 
	C315.203949,322.130615 312.282806,320.634125 310.404572,318.335754 
	C307.417328,314.680237 304.573608,313.674438 299.722382,315.849915 
	C291.504456,310.951843 283.652618,306.128723 275.695740,301.485535 
	C272.305634,299.507202 268.601593,298.067749 265.205841,296.097900 
	C258.306488,292.095703 251.654251,287.645416 244.615555,283.917114 
	C242.063522,282.565369 240.520569,281.444092 240.995117,278.191406 
	C256.713226,268.422516 272.293396,258.880493 288.008301,249.565628 
	C292.808960,246.720078 297.979767,244.498901 303.364502,241.989685 
	C308.581543,239.344910 313.404480,236.682434 318.251251,234.064194 
	C325.427307,230.187729 332.732269,226.530869 339.736786,222.367432 
	C341.791290,221.146240 343.013458,218.524719 344.688812,216.763626 
	C344.760498,216.982254 344.633270,216.544708 345.039612,216.697876 
	C346.306030,216.884628 347.166107,216.918213 348.315857,216.944366 
	C349.049896,216.620743 349.494232,216.304565 349.956421,215.981018 
	C349.974274,215.973663 349.986420,215.937027 350.152069,215.869537 
	C350.382324,215.703522 350.520874,215.541275 350.499664,215.516693 
	C350.354553,215.348236 350.175903,215.208633 349.827698,214.964996 
	C349.405060,214.712387 349.266144,214.489990 349.612457,214.149582 
	C352.913940,214.066895 355.979736,215.890945 358.594696,212.718307 
	C360.339020,210.601868 362.460449,208.121231 364.887207,207.400940 
	C368.499146,206.328888 369.072510,204.262695 368.961548,201.244064 
z"/>
<path fill="#76A0C8" opacity="1.000000" stroke="none" 
	d="
M21.984476,385.008514 
	C22.399435,391.908508 22.611986,398.858582 27.248741,405.029968 
	C27.613239,405.256134 27.638515,405.535217 27.276058,405.614929 
	C26.183228,405.808044 25.452856,405.921417 24.722483,406.034821 
	C20.290070,400.997986 19.055603,394.740692 19.044882,388.454742 
	C18.920879,315.752441 18.953104,243.049805 19.032602,170.347336 
	C19.035820,167.403839 19.918602,164.461304 20.960854,161.233063 
	C22.017593,160.640472 22.505064,160.333115 22.992531,160.025757 
	C26.016123,161.784485 28.735538,163.647247 24.792711,168.851715 
	C24.195627,167.250946 23.751619,166.060593 23.307611,164.870224 
	C22.688734,165.026703 22.069857,165.183197 21.450979,165.339691 
	C21.298174,168.922119 21.145369,172.504562 20.991613,177.012466 
	C20.989676,245.065613 20.980524,312.193298 21.029503,379.320953 
	C21.030888,381.217041 21.652220,383.112671 21.984476,385.008514 
z"/>
<path fill="#3D6890" opacity="1.000000" stroke="none" 
	d="
M455.099091,392.842682 
	C455.419556,320.619659 455.738037,248.396637 456.064209,176.173660 
	C456.090576,170.336502 455.863770,164.673325 452.115814,159.616501 
	C451.025299,158.145126 451.424622,155.569534 451.131470,153.123764 
	C451.324341,152.730011 451.526794,152.712585 452.032410,152.657135 
	C456.166138,159.254440 457.872528,166.351425 457.862946,174.061478 
	C457.775360,244.486603 457.821167,314.911926 457.744690,385.337067 
	C457.741791,388.017639 456.891174,390.697327 456.090515,393.464691 
	C455.612427,393.240387 455.397003,393.003967 455.099091,392.842682 
z"/>
<path fill="#789ABD" opacity="1.000000" stroke="none" 
	d="
M23.129553,159.699432 
	C22.505064,160.333115 22.017593,160.640472 21.225471,160.952148 
	C23.731941,150.377029 29.744371,142.110062 39.118015,136.476501 
	C59.043724,124.501175 79.037140,112.638290 99.024406,100.765678 
	C109.721230,94.411652 120.462929,88.133171 131.566071,82.100731 
	C131.966370,82.921005 131.985016,83.461166 132.003662,84.001320 
	C132.003662,84.001320 132.000000,84.000000 131.682220,84.041779 
	C130.910141,84.712418 130.455826,85.341278 130.001526,85.970139 
	C124.806297,86.913551 113.718079,94.338799 110.690132,97.592926 
	C108.468262,98.516266 106.099854,99.191422 104.048126,100.402893 
	C89.847031,108.788185 75.638588,117.165741 61.584324,125.793083 
	C53.746033,130.604706 46.543339,136.552536 38.423923,140.776886 
	C30.390425,144.956528 28.100121,153.028442 23.129553,159.699432 
z"/>
<path fill="#1D466E" opacity="1.000000" stroke="none" 
	d="
M371.138794,461.379883 
	C351.493195,473.217865 331.870026,485.093292 312.195282,496.882629 
	C294.786804,507.313995 277.320831,517.649536 259.453247,528.026123 
	C259.026245,528.024841 258.855438,527.842651 258.942200,527.511414 
	C260.470764,525.895325 261.865753,524.552917 263.362488,523.335449 
	C270.295074,517.696350 279.690338,515.566101 285.264801,507.913513 
	C285.885742,507.061005 287.599548,506.971619 288.829132,506.603882 
	C290.315216,506.159454 291.985565,506.080292 293.295349,505.343719 
	C297.308746,503.086609 301.138153,500.504517 305.128754,498.204254 
	C315.739960,492.087860 326.398132,486.052856 337.271912,479.822937 
	C337.671082,479.127991 337.836029,478.595551 338.371460,478.041870 
	C342.506683,476.001709 346.271423,473.982849 350.383911,471.971558 
	C351.487335,471.329987 352.242950,470.680847 353.303436,469.882935 
	C355.064453,469.143677 356.520630,468.553192 358.245697,467.859985 
	C359.004333,467.190247 359.494080,466.623230 360.258606,465.916016 
	C361.366669,465.184357 362.199890,464.592896 363.322937,463.980103 
	C364.061676,463.642517 364.510620,463.326263 365.077759,462.787781 
	C365.464355,462.371216 365.732788,462.176910 366.220215,461.880737 
	C366.711151,461.584259 366.898712,461.327942 367.345764,460.971863 
	C368.790222,460.626801 369.890839,460.319763 371.023010,460.355042 
	C371.082642,460.924927 371.110718,461.152405 371.138794,461.379883 
z"/>
<path fill="#1B486F" opacity="1.000000" stroke="none" 
	d="
M24.776337,406.399139 
	C25.452856,405.921417 26.183228,405.808044 27.398869,405.996521 
	C31.454403,409.997742 32.244373,415.680054 37.439995,418.374603 
	C47.128712,423.399353 56.607697,428.843964 66.027893,434.363159 
	C69.648758,436.484619 72.876740,439.278778 76.269814,441.785217 
	C77.066437,442.373657 77.875511,443.649323 78.562111,443.572021 
	C84.433762,442.910736 87.109596,447.758728 91.011322,450.487122 
	C91.927734,451.127930 93.101051,451.397339 94.030777,452.023712 
	C100.390816,456.308868 106.717400,460.643646 112.665703,465.008331 
	C112.017784,465.088959 111.758934,465.123718 111.500092,465.158508 
	C87.080147,450.684784 62.468834,436.518005 38.385849,421.503815 
	C32.926121,418.100006 29.300207,411.754761 24.776337,406.399139 
z"/>
<path fill="#789BBD" opacity="1.000000" stroke="none" 
	d="
M345.931335,82.633446 
	C339.831299,83.831215 335.543365,79.350479 330.679901,76.862679 
	C325.201752,74.060440 320.484741,69.810616 315.239838,66.502563 
	C307.083557,61.358253 298.819550,56.377285 290.490173,51.517387 
	C284.003174,47.732460 277.318115,44.288708 270.774078,40.599339 
	C263.902832,36.725479 257.112793,32.707668 250.247498,28.823074 
	C248.290482,27.715742 246.194946,26.853249 244.080154,25.541756 
	C249.234818,26.996151 254.944382,27.977600 259.632263,30.711191 
	C287.845306,47.162762 315.825500,64.013680 343.872528,80.749557 
	C344.572266,81.167107 345.143585,81.799950 345.931335,82.633446 
z"/>
<path fill="#1F476F" opacity="1.000000" stroke="none" 
	d="
M215.967377,527.328674 
	C194.110580,514.398926 172.253784,501.469177 150.249619,488.217133 
	C150.102234,487.894867 150.209900,487.784363 150.573746,487.855682 
	C156.614883,490.734497 162.462784,493.246429 167.936752,496.406158 
	C183.015915,505.110321 197.946045,514.073120 212.910995,522.974121 
	C214.352661,523.831604 215.626022,524.972046 216.736176,526.143677 
	C216.319016,526.646973 216.143188,526.987854 215.967377,527.328674 
z"/>
<path fill="#799BBF" opacity="1.000000" stroke="none" 
	d="
M225.020538,28.038227 
	C222.620377,29.530521 220.230850,31.040251 217.818192,32.512074 
	C207.738220,38.661312 197.681763,44.849949 187.556488,50.923790 
	C180.497910,55.158012 173.367401,59.274796 166.206467,63.333687 
	C164.813461,64.123253 163.132034,64.403938 161.193100,64.842712 
	C167.321442,60.614548 173.769516,56.346424 180.374268,52.336288 
	C193.276581,44.502518 206.252441,36.789280 219.238571,29.094893 
	C220.781784,28.180532 222.579086,27.695032 224.632431,27.285730 
	C225.006256,27.560724 225.020538,28.038229 225.020538,28.038227 
z"/>
<path fill="#789BBD" opacity="1.000000" stroke="none" 
	d="
M409.115295,120.510010 
	C404.054382,119.056244 398.866425,118.159523 394.475159,113.894547 
	C390.003235,109.551262 383.814270,106.954865 378.319794,103.690102 
	C368.809143,98.038963 359.234314,92.495514 349.739990,86.817299 
	C348.375916,86.001503 347.310303,84.686646 346.083313,83.250870 
	C348.998657,84.330032 352.052124,85.566551 354.857025,87.223846 
	C372.384338,97.580032 389.859589,108.024399 407.333038,118.471436 
	C408.004150,118.872681 408.480743,119.599304 409.115295,120.510010 
z"/>
<path fill="#1C466F" opacity="1.000000" stroke="none" 
	d="
M371.496918,461.296143 
	C371.110718,461.152405 371.082642,460.924927 371.221558,460.077148 
	C378.425629,454.874451 385.368347,450.137695 392.529724,445.758636 
	C398.225830,442.275513 404.149139,439.153931 410.051086,436.021637 
	C412.931854,434.492706 415.993927,433.305389 419.105743,432.114410 
	C419.237579,432.265381 419.508087,432.561249 419.508087,432.561249 
	C403.623749,442.111633 387.739380,451.662018 371.496918,461.296143 
z"/>
<path fill="#1D4A71" opacity="1.000000" stroke="none" 
	d="
M449.012085,405.079407 
	C449.903015,405.227325 450.793915,405.375275 451.889587,405.801025 
	C449.061432,412.965149 444.116272,418.152893 437.764801,422.043121 
	C433.815735,424.461884 429.791016,426.757080 425.413116,428.860626 
	C425.009186,428.397125 424.992401,428.180695 425.140686,427.662720 
	C429.753754,424.294586 434.228485,421.265625 438.631989,418.136444 
	C439.812378,417.297607 440.836487,416.209259 441.824738,415.136322 
	C443.466888,413.353546 445.141449,411.578430 446.573059,409.631470 
	C447.582581,408.258606 448.212616,406.606720 449.012085,405.079407 
z"/>
<path fill="#779ABE" opacity="1.000000" stroke="none" 
	d="
M451.964905,151.678101 
	C450.173950,150.571091 448.161591,149.227310 446.290283,147.709641 
	C441.376160,143.724258 436.799316,139.252274 431.572144,135.742645 
	C425.840332,131.894211 419.531281,128.905609 413.580231,125.231689 
	C414.181305,124.492928 414.675903,124.064781 415.170502,123.636635 
	C423.863403,128.766785 432.886627,133.427750 441.113708,139.219574 
	C445.402313,142.238739 448.288269,147.250412 451.964905,151.678101 
z"/>
<path fill="#799BBF" opacity="1.000000" stroke="none" 
	d="
M132.356369,83.964584 
	C131.985016,83.461166 131.966370,82.921005 131.911102,81.972916 
	C141.288101,75.970947 150.701767,70.376907 160.481232,64.783035 
	C156.574448,67.978920 152.412354,71.337738 147.999954,74.327118 
	C143.020432,77.700706 137.815811,80.742020 132.356369,83.964584 
z"/>
<path fill="#1C476F" opacity="1.000000" stroke="none" 
	d="
M111.720108,465.430450 
	C111.758934,465.123718 112.017784,465.088959 113.047394,465.021118 
	C120.874359,468.987915 127.930573,472.987854 134.617905,476.987701 
	C132.829941,476.662170 131.410873,476.336761 129.991806,476.011353 
	C123.974579,472.575012 117.957352,469.138702 111.720108,465.430450 
z"/>
<path fill="#789BBD" opacity="1.000000" stroke="none" 
	d="
M225.470825,28.025661 
	C225.020538,28.038229 225.006256,27.560724 225.003799,27.322109 
	C230.419800,26.323345 235.838242,25.563194 241.610352,24.971233 
	C236.616379,26.097315 231.268738,27.055206 225.470825,28.025661 
z"/>
<path fill="#1D466E" opacity="1.000000" stroke="none" 
	d="
M216.184387,527.574463 
	C216.143188,526.987854 216.319016,526.646973 217.129272,526.160034 
	C221.844833,528.005859 225.925949,529.997742 230.003845,531.994385 
	C230.000595,531.999207 229.996872,532.004883 229.564026,532.004883 
	C228.262329,532.046997 227.393463,532.089111 226.524612,532.131165 
	C225.412003,531.886536 224.299377,531.641968 222.818604,531.221558 
	C222.450439,531.045715 222.450928,530.952576 222.450928,530.952576 
	C220.434418,529.908447 218.417908,528.864380 216.184387,527.574463 
z"/>
<path fill="#1C476F" opacity="1.000000" stroke="none" 
	d="
M138.543304,481.139771 
	C138.078094,481.005859 137.612885,480.871948 137.045975,480.152222 
	C136.963821,479.054749 136.983383,478.543091 137.374146,478.064575 
	C139.834854,480.197327 144.755203,478.120789 144.600769,482.995117 
	C143.263718,482.971680 142.291702,482.945282 141.319687,482.918884 
	C140.977753,482.777802 140.635834,482.636688 139.970886,482.012238 
	C139.279678,481.399170 138.911499,481.269470 138.543304,481.139771 
z"/>
<path fill="#1F476F" opacity="1.000000" stroke="none" 
	d="
M141.533890,483.154541 
	C142.291702,482.945282 143.263718,482.971680 144.902130,483.123596 
	C146.388824,483.498657 147.209137,483.748138 148.256729,484.000214 
	C148.484009,484.002808 148.938568,484.006500 148.955292,484.257263 
	C148.981720,484.675232 148.991455,484.842468 149.108078,485.225159 
	C149.410522,485.709442 149.666321,485.895477 150.000916,486.299500 
	C150.082947,486.994965 150.146423,487.389679 150.209900,487.784363 
	C150.209900,487.784363 150.102234,487.894867 150.048370,487.950104 
	C147.245697,486.466980 144.496902,484.928589 141.533890,483.154541 
z"/>
<path fill="#1D466E" opacity="1.000000" stroke="none" 
	d="
M237.028717,533.828369 
	C235.616623,533.886780 234.204544,533.945251 232.207123,533.694946 
	C231.080170,532.925842 230.538513,532.465332 229.996872,532.004883 
	C229.996872,532.004883 230.000595,531.999207 230.469208,531.996582 
	C235.623123,531.992432 240.308441,531.990845 245.002838,532.001099 
	C245.011917,532.012878 245.034424,532.035339 244.758362,532.306763 
	C241.997787,532.994873 239.513245,533.411621 237.028717,533.828369 
z"/>
<path fill="#1F476F" opacity="1.000000" stroke="none" 
	d="
M237.477173,533.907471 
	C239.513245,533.411621 241.997787,532.994873 245.211060,532.294800 
	C247.145996,532.108398 248.352173,532.205383 249.558350,532.302429 
	C245.680771,532.863831 241.803207,533.425171 237.477173,533.907471 
z"/>
<path fill="#1D466E" opacity="1.000000" stroke="none" 
	d="
M257.979889,528.934082 
	C256.130676,529.850220 254.281448,530.766296 251.901581,531.513428 
	C251.243027,531.224670 251.115158,531.105042 251.060364,530.628723 
	C253.422684,529.504150 255.711960,528.736206 257.998657,528.209778 
	C257.996124,528.451294 257.979889,528.934082 257.979889,528.934082 
z"/>
<path fill="#3D6890" opacity="1.000000" stroke="none" 
	d="
M454.679016,398.127045 
	C454.758881,397.692932 454.838715,397.258789 455.254761,396.424805 
	C455.781158,395.995026 455.971405,395.965118 456.161621,395.935211 
	C455.271484,398.162323 454.381317,400.389465 453.197510,402.600433 
	C452.886810,402.398346 452.869781,402.212372 452.852783,402.026428 
	C453.153229,401.253021 453.453674,400.479584 454.074493,399.303162 
	C454.605225,398.684937 454.699982,398.427216 454.679016,398.127045 
z"/>
<path fill="#1F476F" opacity="1.000000" stroke="none" 
	d="
M137.002930,478.031433 
	C136.983383,478.543091 136.963821,479.054749 136.909180,479.948853 
	C134.691132,479.086365 132.508179,477.841370 130.158508,476.303894 
	C131.410873,476.336761 132.829941,476.662170 134.919250,477.015472 
	C136.060638,477.372711 136.531784,477.702087 137.002930,478.031433 
z"/>
<path fill="#789BBD" opacity="1.000000" stroke="none" 
	d="
M414.944031,123.393448 
	C414.675903,124.064781 414.181305,124.492928 413.347595,124.959961 
	C412.218689,124.352448 411.428894,123.706047 410.211212,122.810196 
	C409.585114,122.289459 409.325897,122.102936 409.005676,122.001190 
	C409.020508,121.800911 409.035370,121.600624 409.106201,121.102951 
	C411.013916,121.587128 412.865753,122.368690 414.944031,123.393448 
z"/>
<path fill="#1C466F" opacity="1.000000" stroke="none" 
	d="
M424.975586,427.964294 
	C424.992401,428.180695 425.009186,428.397125 425.059906,428.937439 
	C424.068268,429.939636 423.042694,430.617950 421.595642,431.237885 
	C421.174194,431.179535 420.950439,430.949127 421.008453,430.600769 
	C422.369507,429.489685 423.672546,428.726990 424.975586,427.964294 
z"/>
<path fill="#1F476F" opacity="1.000000" stroke="none" 
	d="
M229.564026,532.004883 
	C230.538513,532.465332 231.080170,532.925842 231.792603,533.598511 
	C230.341705,533.405701 228.720016,533.000732 226.811462,532.363403 
	C227.393463,532.089111 228.262329,532.046997 229.564026,532.004883 
z"/>
<path fill="#1D466E" opacity="1.000000" stroke="none" 
	d="
M249.798737,532.378174 
	C248.352173,532.205383 247.145996,532.108398 245.487122,532.023376 
	C245.034424,532.035339 245.011917,532.012878 245.271759,531.727661 
	C247.350174,531.290100 249.168732,531.137756 250.987289,530.985352 
	C251.115158,531.105042 251.243027,531.224670 251.555557,531.532959 
	C251.740204,531.721619 251.669434,531.713013 251.476410,531.754944 
	C251.283386,531.796875 250.942352,532.075806 250.942352,532.075806 
	C250.641281,532.201843 250.340210,532.327881 249.798737,532.378174 
z"/>
<path fill="#1D4A71" opacity="1.000000" stroke="none" 
	d="
M456.190979,395.606201 
	C455.971405,395.965118 455.781158,395.995026 455.311401,396.098572 
	C455.027374,395.339447 455.022919,394.506714 455.058777,393.258301 
	C455.397003,393.003967 455.612427,393.240387 455.863953,393.764709 
	C456.061768,394.410736 456.141052,394.843964 456.190979,395.606201 
z"/>
<path fill="#1C466F" opacity="1.000000" stroke="none" 
	d="
M421.285217,431.295532 
	C420.954590,431.757385 420.512970,432.103241 419.789703,432.505157 
	C419.508087,432.561249 419.237579,432.265381 419.277832,431.878113 
	C419.862183,431.310242 420.406311,431.129669 420.950439,430.949097 
	C420.950439,430.949127 421.174194,431.179535 421.285217,431.295532 
z"/>
<path fill="#1D4A71" opacity="1.000000" stroke="none" 
	d="
M452.646637,402.176086 
	C452.869781,402.212372 452.886810,402.398346 452.987183,402.851807 
	C453.070496,403.119324 453.139801,403.581482 453.030304,403.788025 
	C452.760712,403.438324 452.600616,402.882019 452.646637,402.176086 
z"/>
<path fill="#1F476F" opacity="1.000000" stroke="none" 
	d="
M258.242615,528.940674 
	C257.979889,528.934082 257.996124,528.451294 258.213623,528.187988 
	C258.431091,527.924683 258.855438,527.842651 258.855438,527.842651 
	C258.855438,527.842651 259.026245,528.024841 259.112061,528.117554 
	C258.967010,528.455933 258.736145,528.701660 258.242615,528.940674 
z"/>
<path fill="#1F476F" opacity="1.000000" stroke="none" 
	d="
M222.479172,531.031006 
	C222.450928,530.952576 222.450439,531.045715 222.423981,531.032898 
	C222.397507,531.020081 222.507416,531.109375 222.479172,531.031006 
z"/>
<path fill="#1F476F" opacity="1.000000" stroke="none" 
	d="
M251.490875,531.722900 
	C251.506485,531.849426 251.314621,532.049988 251.032562,532.163208 
	C250.942352,532.075806 251.283386,531.796875 251.490875,531.722900 
z"/>
<path fill="#1F476F" opacity="1.000000" stroke="none" 
	d="
M138.707581,481.390747 
	C138.911499,481.269470 139.279678,481.399170 139.819153,481.772644 
	C139.617569,481.891510 139.244705,481.766602 138.707581,481.390747 
z"/>
<path fill="#FCFDFD" opacity="1.000000" stroke="none" 
	d="
M99.319534,230.999878 
	C99.522415,230.573730 99.725296,230.147583 100.240021,229.137085 
	C102.069878,224.740509 103.292084,220.775528 105.166023,217.147156 
	C109.366791,209.013535 113.891602,201.047256 118.284462,193.012848 
	C118.284462,193.012848 118.451935,192.605133 118.661911,192.147797 
	C122.845955,186.898148 126.703667,182.003433 130.814194,177.331146 
	C148.791245,156.897278 170.817123,142.597778 196.874924,134.806442 
	C205.394806,132.258972 214.262329,130.874176 222.970856,128.957657 
	C223.421814,128.965408 223.872772,128.973175 225.114059,128.946503 
	C253.716034,127.291023 280.259064,131.820190 304.969086,145.227310 
	C309.908478,147.907303 314.841034,150.599869 319.776764,153.286636 
	C319.776764,153.286636 319.703033,153.158936 319.802856,153.548111 
	C322.862732,156.036087 325.822754,158.134888 328.782776,160.233673 
	C328.782776,160.233673 328.951233,160.231934 328.970703,160.529968 
	C335.681641,168.061310 342.717712,175.011475 348.961884,182.612244 
	C354.545227,189.408661 359.254944,196.922729 364.287537,204.177719 
	C364.224884,204.235291 364.160400,204.392761 363.934387,204.406616 
	C363.410889,204.552155 363.218628,204.774750 362.815002,205.237915 
	C357.901123,208.274094 353.303833,211.160568 348.352722,214.118942 
	C346.876984,214.975449 345.755127,215.760071 344.633270,216.544708 
	C344.633270,216.544708 344.760498,216.982254 344.335999,216.803223 
	C330.297913,224.776764 316.684296,232.929306 302.714355,241.020737 
	C300.540253,238.919739 298.517273,237.026718 296.936188,234.817459 
	C279.927063,211.050949 250.096771,199.354095 222.928238,205.885345 
	C184.821213,215.046158 160.115356,251.781448 166.244598,290.591370 
	C167.660324,299.555756 169.292679,308.643250 175.477585,316.381592 
	C178.661194,321.218506 181.786118,325.674408 184.936798,330.085052 
	C184.962540,330.039795 184.866837,330.080872 184.959518,330.403442 
	C187.176010,332.645050 189.299820,334.564056 191.458588,336.457825 
	C191.493530,336.432617 191.524811,336.512939 191.623505,336.764374 
	C192.044861,337.152618 192.367493,337.289429 192.691223,337.352356 
	C192.692322,337.278503 192.587936,337.383087 192.661957,337.719116 
	C197.172684,341.008057 201.609375,343.960999 206.029724,346.953339 
	C206.013397,346.992767 206.082367,346.942474 206.381500,347.114929 
	C230.342041,358.446106 253.468994,357.297302 275.783478,343.773315 
	C286.115448,337.511475 294.798706,329.397400 300.428528,317.985504 
	C302.853058,318.560730 305.086975,319.099121 307.003296,320.193604 
	C316.713684,325.739502 326.341644,331.429840 336.156830,337.211365 
	C336.315186,337.353210 336.740295,337.346313 336.740295,337.346313 
	C336.740295,337.346313 336.896393,337.162994 336.927582,337.538025 
	C345.173187,342.897064 353.436523,347.804047 361.546234,352.953064 
	C362.685791,353.676666 363.073395,355.584656 363.519623,357.117737 
	C362.286438,359.029388 361.451019,360.837616 360.381958,362.495117 
	C350.677063,377.541962 338.870544,390.640747 324.024658,401.053467 
	C322.914398,401.719391 322.108765,402.517700 321.256042,403.157654 
	C321.208984,402.999298 321.280701,403.319885 320.869415,403.225800 
	C315.157776,402.490265 312.845612,405.925598 311.017548,410.019287 
	C311.003174,409.997589 311.043335,410.031982 310.815338,410.064209 
	C310.285675,410.229401 310.088287,410.454010 309.699005,410.979706 
	C302.064240,414.619629 294.966034,418.776459 287.328735,421.304474 
	C276.779236,424.796509 265.823303,427.060760 254.703674,429.717834 
	C229.532913,431.784119 205.458618,428.877899 182.422409,418.928497 
	C178.353256,417.171021 174.246765,415.499969 170.111771,413.845642 
	C170.066010,413.902252 170.199142,413.843292 170.093811,413.524597 
	C168.017563,412.108887 166.046616,411.011902 164.039215,409.958069 
	C164.002747,410.001221 164.081421,409.918945 163.904770,409.636383 
	C154.816757,402.338531 145.905411,395.323242 136.641663,388.200562 
	C128.196152,377.405396 120.103050,366.717621 111.851791,355.712219 
	C111.139435,354.185608 110.646416,352.944031 110.022003,351.772491 
	C98.062057,329.333496 91.823921,305.306152 92.277863,279.982269 
	C92.517082,266.636719 95.236984,253.335663 96.836807,240.014511 
	C96.969070,238.950272 97.101334,237.886047 97.329208,236.280701 
	C97.631310,235.529724 97.758629,235.279541 97.806793,234.989090 
	C97.944542,234.586700 98.082291,234.184326 98.402039,233.311050 
	C98.829216,232.226730 99.074379,231.613312 99.319534,230.999878 
z"/>
<path fill="#034484" opacity="1.000000" stroke="none" 
	d="
M258.942200,527.511414 
	C258.855438,527.842651 258.431091,527.924683 258.216156,527.946472 
	C255.711960,528.736206 253.422684,529.504150 251.060364,530.628723 
	C249.168732,531.137756 247.350174,531.290100 245.262695,531.715881 
	C240.308441,531.990845 235.623123,531.992432 230.472443,531.991760 
	C225.925949,529.997742 221.844833,528.005859 217.370605,525.997559 
	C215.626022,524.972046 214.352661,523.831604 212.910995,522.974121 
	C197.946045,514.073120 183.015915,505.110321 167.936752,496.406158 
	C162.462784,493.246429 156.614883,490.734497 150.573746,487.855682 
	C150.146423,487.389679 150.082947,486.994965 149.899460,486.080078 
	C149.583511,485.286713 149.324081,485.103333 149.001190,485.009735 
	C148.991455,484.842468 148.981720,484.675232 148.884598,484.091980 
	C148.541290,483.783173 148.285370,483.890411 148.029449,483.997620 
	C147.209137,483.748138 146.388824,483.498657 145.267151,483.120667 
	C144.755203,478.120789 139.834854,480.197327 137.374146,478.064575 
	C136.531784,477.702087 136.060638,477.372711 135.288147,477.015564 
	C127.930573,472.987854 120.874359,468.987915 113.436462,464.975220 
	C106.717400,460.643646 100.390816,456.308868 94.030777,452.023712 
	C93.101051,451.397339 91.927734,451.127930 91.011322,450.487122 
	C87.109596,447.758728 84.433762,442.910736 78.562111,443.572021 
	C77.875511,443.649323 77.066437,442.373657 76.269814,441.785217 
	C72.876740,439.278778 69.648758,436.484619 66.027893,434.363159 
	C56.607697,428.843964 47.128712,423.399353 37.439995,418.374603 
	C32.244373,415.680054 31.454403,409.997742 27.761326,405.916809 
	C27.638515,405.535217 27.613239,405.256134 27.567181,405.123505 
	C40.088196,397.613251 52.687202,390.289368 65.213951,382.843903 
	C79.592636,374.297699 93.907295,365.643738 108.663040,357.315674 
	C110.656525,359.592346 112.295952,361.546387 113.805962,363.595764 
	C118.534081,370.012756 122.966599,376.668579 128.019791,382.815796 
	C130.404449,385.716736 133.943100,387.669037 137.010452,390.396362 
	C139.305176,397.169250 146.126892,399.028748 149.958069,403.633789 
	C153.939987,408.419983 159.010437,408.697357 164.081421,409.918945 
	C164.081421,409.918945 164.002747,410.001221 164.050507,410.323303 
	C166.131897,411.711365 168.165512,412.777344 170.199127,413.843323 
	C170.199142,413.843292 170.066010,413.902252 170.114624,414.210052 
	C175.097153,419.414124 181.501007,421.553741 187.763474,424.000458 
	C190.419937,425.038300 192.830902,426.985260 195.551010,427.526947 
	C203.842560,429.178131 212.231567,430.338531 220.580170,431.705017 
	C232.096558,433.589996 243.580170,434.003235 255.451126,430.998627 
	C261.140137,430.347076 266.496338,430.189514 271.576721,428.924469 
	C279.578369,426.931976 287.423889,424.284576 295.273315,421.723755 
	C298.011963,420.830292 300.566498,419.372498 303.205109,418.172424 
	C307.443909,415.672546 311.832764,413.321960 316.231232,410.989441 
	C320.069977,408.953674 325.593781,407.892517 327.407349,404.710449 
	C330.921631,398.544525 336.087616,395.105164 341.616180,391.599030 
	C342.670715,390.930206 343.557465,389.922943 344.352570,388.935669 
	C345.633667,387.344940 346.592834,385.463043 348.009399,384.019531 
	C351.623413,380.336700 355.444977,376.858276 359.101685,373.215912 
	C359.623138,372.696564 359.664398,371.710327 359.972229,370.958252 
	C360.708496,369.159332 361.555603,367.401154 362.203705,365.571838 
	C363.208374,362.736145 364.084595,359.854919 365.261444,356.873474 
	C365.988190,356.496674 366.468781,356.239380 366.949341,355.982117 
	C382.159119,365.241516 397.304047,374.609741 412.599487,383.725372 
	C424.501465,390.818573 436.590942,397.597168 448.804565,404.797516 
	C448.212616,406.606720 447.582581,408.258606 446.573059,409.631470 
	C445.141449,411.578430 443.466888,413.353546 441.824738,415.136322 
	C440.836487,416.209259 439.812378,417.297607 438.631989,418.136444 
	C434.228485,421.265625 429.753754,424.294586 425.140686,427.662720 
	C423.672546,428.726990 422.369507,429.489685 421.008453,430.600739 
	C420.406311,431.129669 419.862183,431.310242 419.145996,431.727112 
	C415.993927,433.305389 412.931854,434.492706 410.051086,436.021637 
	C404.149139,439.153931 398.225830,442.275513 392.529724,445.758636 
	C385.368347,450.137695 378.425629,454.874451 371.190002,459.734772 
	C369.890839,460.319763 368.790222,460.626801 367.200775,460.812317 
	C366.475037,461.121399 366.238098,461.552002 366.001221,461.982605 
	C365.732788,462.176910 365.464355,462.371216 364.788452,462.806458 
	C363.931702,463.365356 363.482422,463.683380 363.033142,464.001404 
	C362.199890,464.592896 361.366669,465.184357 359.943237,465.940857 
	C358.894318,466.724854 358.435577,467.343781 357.976807,467.962708 
	C356.520630,468.553192 355.064453,469.143677 352.986328,469.901672 
	C351.588318,470.700806 350.812256,471.332428 350.036133,471.963989 
	C346.271423,473.982849 342.506683,476.001709 338.127319,478.193695 
	C337.354370,478.906403 337.196014,479.445953 337.037659,479.985535 
	C326.398132,486.052856 315.739960,492.087860 305.128754,498.204254 
	C301.138153,500.504517 297.308746,503.086609 293.295349,505.343719 
	C291.985565,506.080292 290.315216,506.159454 288.829132,506.603882 
	C287.599548,506.971619 285.885742,507.061005 285.264801,507.913513 
	C279.690338,515.566101 270.295074,517.696350 263.362488,523.335449 
	C261.865753,524.552917 260.470764,525.895325 258.942200,527.511414 
z"/>
<path fill="#5D9CDA" opacity="1.000000" stroke="none" 
	d="
M26.998724,175.999313 
	C30.535124,175.750656 31.051323,177.900818 31.024654,180.781219 
	C30.946037,189.272842 30.997068,197.765671 30.997076,206.258026 
	C30.997120,263.872833 31.018583,321.487640 30.906084,379.102234 
	C30.902218,381.081451 32.898792,385.214539 27.329725,383.669739 
	C26.999916,314.041565 26.999321,245.020432 26.998724,175.999313 
z"/>
<path fill="#6999C8" opacity="1.000000" stroke="none" 
	d="
M26.809662,175.756195 
	C26.999321,245.020432 26.999916,314.041565 27.000858,383.531342 
	C26.213930,384.316376 25.426653,384.632782 24.318766,384.509521 
	C23.669733,314.713898 23.341309,245.357910 23.012886,176.001938 
	C24.215458,175.838989 25.418030,175.676041 26.809662,175.756195 
z"/>
<path fill="#5D9CD5" opacity="1.000000" stroke="none" 
	d="
M22.751118,176.107468 
	C23.341309,245.357910 23.669733,314.713898 23.999725,384.534332 
	C23.553236,384.999939 23.105177,385.001099 22.320797,385.005371 
	C21.652220,383.112671 21.030888,381.217041 21.029503,379.320953 
	C20.980524,312.193298 20.989676,245.065613 20.992943,177.469391 
	C21.493265,176.738220 21.991308,176.475616 22.751118,176.107468 
z"/>
<path fill="#7B9EC1" opacity="1.000000" stroke="none" 
	d="
M222.680740,128.671814 
	C214.262329,130.874176 205.394806,132.258972 196.874924,134.806442 
	C170.817123,142.597778 148.791245,156.897278 130.814194,177.331146 
	C126.703667,182.003433 122.845955,186.898148 118.658752,191.927429 
	C118.419846,191.125092 117.936180,189.703156 118.436958,189.103882 
	C125.953064,180.109421 132.833786,170.380829 141.442490,162.563187 
	C149.114792,155.595886 158.743042,150.786789 167.477341,144.978989 
	C168.524017,144.283020 169.378708,143.298065 170.321167,142.445724 
	C171.534882,141.348083 172.567703,139.725616 173.990158,139.237442 
	C181.948196,136.506378 189.874466,133.486038 198.056015,131.659103 
	C206.014359,129.882019 214.267136,129.423477 222.680740,128.671814 
z"/>
<path fill="#789CC0" opacity="1.000000" stroke="none" 
	d="
M96.451828,240.019592 
	C95.236984,253.335663 92.517082,266.636719 92.277863,279.982269 
	C91.823921,305.306152 98.062057,329.333496 110.022003,351.772491 
	C110.646416,352.944031 111.139435,354.185608 111.490921,355.713165 
	C110.582138,356.042847 109.876076,356.053925 109.170013,356.065002 
	C103.978966,342.775299 97.162407,329.859314 93.999557,316.103271 
	C89.846535,298.040833 86.512840,279.455231 91.483131,260.641876 
	C92.868340,255.398651 92.353691,249.676743 93.126152,244.233398 
	C93.340652,242.721817 95.045662,241.421768 96.451828,240.019592 
z"/>
<path fill="#7B9EC1" opacity="1.000000" stroke="none" 
	d="
M319.728058,152.934875 
	C314.841034,150.599869 309.908478,147.907303 304.969086,145.227310 
	C280.259064,131.820190 253.716034,127.291023 225.437317,128.841064 
	C224.870682,125.645607 227.111206,126.135300 229.097488,125.980446 
	C244.222656,124.801323 258.935760,127.021660 273.601135,130.622269 
	C285.168732,133.462311 296.330902,136.774460 305.981201,144.203934 
	C310.198151,147.450439 315.092590,149.816956 319.728058,152.934875 
z"/>
<path fill="#789CBE" opacity="1.000000" stroke="none" 
	d="
M364.350159,204.120148 
	C359.254944,196.922729 354.545227,189.408661 348.961884,182.612244 
	C342.717712,175.011475 335.681641,168.061310 328.888184,160.514008 
	C331.629395,161.733994 334.921783,162.778442 337.229553,164.895950 
	C343.537598,170.683853 350.377686,175.909012 354.386322,184.010971 
	C357.463593,190.230515 361.954163,195.750778 365.825562,202.149109 
	C365.340027,203.184174 364.845093,203.652161 364.350159,204.120148 
z"/>
<path fill="#1C466A" opacity="1.000000" stroke="none" 
	d="
M109.096375,356.266174 
	C109.876076,356.053925 110.582138,356.042847 111.649078,356.030823 
	C120.103050,366.717621 128.196152,377.405396 136.641663,388.490906 
	C136.982330,389.276154 136.970596,389.663666 136.958862,390.051178 
	C133.943100,387.669037 130.404449,385.716736 128.019791,382.815796 
	C122.966599,376.668579 118.534081,370.012756 113.805962,363.595764 
	C112.295952,361.546387 110.656525,359.592346 109.004715,357.240540 
	C108.933121,356.886353 109.022751,356.467377 109.096375,356.266174 
z"/>
<path fill="#789CC0" opacity="1.000000" stroke="none" 
	d="
M117.887299,193.029846 
	C113.891602,201.047256 109.366791,209.013535 105.166023,217.147156 
	C103.292084,220.775528 102.069878,224.740509 100.282555,228.782761 
	C99.915657,227.500031 99.278290,225.756897 99.809402,224.512466 
	C102.914810,217.236404 106.397812,210.121887 109.527252,202.855469 
	C110.716759,200.093521 111.305634,197.072906 112.294250,193.746216 
	C113.420486,193.594620 115.455307,193.320724 117.887299,193.029846 
z"/>
<path fill="#215D8B" opacity="1.000000" stroke="none" 
	d="
M364.287537,204.177704 
	C364.845093,203.652161 365.340027,203.184174 365.961304,202.493698 
	C366.849884,201.979248 367.612183,201.687271 368.667999,201.319687 
	C369.072510,204.262695 368.499146,206.328888 364.887207,207.400940 
	C362.460449,208.121231 360.339020,210.601868 358.594696,212.718307 
	C355.979736,215.890945 352.913940,214.066895 349.482056,214.104385 
	C348.969818,214.112671 348.706543,214.047043 348.706543,214.047058 
	C353.303833,211.160568 357.901123,208.274094 363.049072,205.235458 
	C363.937592,204.975662 364.124481,204.745483 364.160400,204.392761 
	C364.160400,204.392761 364.224884,204.235291 364.287537,204.177704 
z"/>
<path fill="#7B9EC1" opacity="1.000000" stroke="none" 
	d="
M328.824585,159.847595 
	C325.822754,158.134888 322.862732,156.036087 319.818054,153.620270 
	C324.049927,153.469238 328.130524,153.985168 328.824585,159.847595 
z"/>
<path fill="#799BBF" opacity="1.000000" stroke="none" 
	d="
M130.321686,85.937515 
	C130.455826,85.341278 130.910141,84.712418 131.682831,84.043640 
	C131.548096,84.637459 131.094986,85.271179 130.321686,85.937515 
z"/>
<path fill="#789CC0" opacity="1.000000" stroke="none" 
	d="
M99.066475,231.092896 
	C99.074379,231.613312 98.829216,232.226730 98.334892,232.990921 
	C98.328300,232.489761 98.570854,231.837845 99.066475,231.092896 
z"/>
<path fill="#789CC0" opacity="1.000000" stroke="none" 
	d="
M97.588989,235.000900 
	C97.758629,235.279541 97.631310,235.529724 97.265366,235.881531 
	C97.194321,235.686539 97.282753,235.349625 97.588989,235.000900 
z"/>
<path fill="#779ABE" opacity="1.000000" stroke="none" 
	d="
M409.111572,122.220299 
	C409.325897,122.102936 409.585114,122.289459 409.891266,122.778168 
	C409.675873,122.898415 409.415283,122.713028 409.111572,122.220299 
z"/>
<path fill="#659AD1" opacity="1.000000" stroke="none" 
	d="
M175.418915,316.000610 
	C169.292679,308.643250 167.660324,299.555756 166.244598,290.591370 
	C160.115356,251.781448 184.821213,215.046158 222.928238,205.885345 
	C250.096771,199.354095 279.927063,211.050949 296.936188,234.817459 
	C298.517273,237.026718 300.540253,238.919739 302.695007,241.248566 
	C303.031982,241.537537 302.981049,241.991791 302.981049,241.991791 
	C297.979767,244.498901 292.808960,246.720078 288.008301,249.565628 
	C272.293396,258.880493 256.713226,268.422516 240.631744,278.291748 
	C231.638077,283.720184 223.040924,288.646423 214.563004,293.769958 
	C203.675385,300.349823 192.883545,307.088135 181.665939,313.830322 
	C179.327271,314.601868 177.373093,315.301239 175.418915,316.000610 
z"/>
<path fill="#034583" opacity="1.000000" stroke="none" 
	d="
M182.050430,313.758179 
	C192.883545,307.088135 203.675385,300.349823 214.563004,293.769958 
	C223.040924,288.646423 231.638077,283.720184 240.545624,278.605896 
	C240.520569,281.444092 242.063522,282.565369 244.615555,283.917114 
	C251.654251,287.645416 258.306488,292.095703 265.205841,296.097900 
	C268.601593,298.067749 272.305634,299.507202 275.695740,301.485535 
	C283.652618,306.128723 291.504456,310.951843 299.685974,316.099335 
	C299.942810,316.661682 299.912415,316.826843 299.527161,317.009827 
	C297.044495,319.579956 295.178345,322.420929 292.739960,324.630463 
	C285.472076,331.216217 278.238525,337.893585 270.454498,343.831055 
	C267.075806,346.408203 262.424042,347.376343 258.273956,348.861450 
	C255.433044,349.878082 252.482910,350.623322 249.540176,351.313171 
	C245.740005,352.204041 241.920578,353.379730 238.067856,353.564240 
	C234.947601,353.713715 231.757523,352.621765 228.614548,351.998993 
	C226.724106,351.624390 224.841248,351.171600 222.995651,350.618225 
	C218.012024,349.123993 213.050171,347.557159 207.867386,346.070923 
	C207.371506,346.241486 207.175201,346.444550 206.818604,346.776947 
	C206.408127,346.862152 206.245255,346.902313 206.082367,346.942474 
	C206.082367,346.942474 206.013397,346.992767 206.025864,346.583618 
	C204.225449,341.840088 197.311020,337.320679 192.587936,337.383087 
	C192.587936,337.383087 192.692322,337.278503 192.664368,337.036499 
	C192.265869,336.700623 191.895340,336.606781 191.524811,336.512939 
	C191.524811,336.512939 191.493530,336.432617 191.630157,336.121277 
	C192.050858,333.719604 192.334915,331.629272 192.493134,330.464966 
	C189.576294,330.318054 187.221558,330.199463 184.866837,330.080872 
	C184.866837,330.080872 184.962540,330.039795 184.960205,329.698608 
	C184.024460,327.288269 183.232147,325.140411 182.130280,323.165222 
	C179.238266,317.980927 179.184525,318.010895 182.050430,313.758179 
z"/>
<path fill="#205988" opacity="1.000000" stroke="none" 
	d="
M299.882050,316.992035 
	C299.912415,316.826843 299.942810,316.661682 300.009583,316.247070 
	C304.573608,313.674438 307.417328,314.680237 310.404572,318.335754 
	C312.282806,320.634125 315.203949,322.130615 317.778839,323.799133 
	C323.781860,327.689209 329.858337,331.465881 335.956238,335.901550 
	C336.004364,336.699646 336.001404,336.884583 335.998474,337.069550 
	C326.341644,331.429840 316.713684,325.739502 307.003296,320.193604 
	C305.086975,319.099121 302.853058,318.560730 300.367065,317.683716 
	C299.939697,317.398315 299.910858,317.195160 299.882050,316.992035 
z"/>
<path fill="#225B86" opacity="1.000000" stroke="none" 
	d="
M303.364502,241.989685 
	C302.981049,241.991791 303.031982,241.537537 303.051331,241.309692 
	C316.684296,232.929306 330.297913,224.776764 344.264343,216.584595 
	C343.013458,218.524719 341.791290,221.146240 339.736786,222.367432 
	C332.732269,226.530869 325.427307,230.187729 318.251251,234.064194 
	C313.404480,236.682434 308.581543,239.344910 303.364502,241.989685 
z"/>
<path fill="#1F5B86" opacity="1.000000" stroke="none" 
	d="
M366.953674,355.621887 
	C366.468781,356.239380 365.988190,356.496674 364.959412,356.871277 
	C364.210510,356.973877 364.009796,356.959167 363.809052,356.944427 
	C363.073395,355.584656 362.685791,353.676666 361.546234,352.953064 
	C353.436523,347.804047 345.173187,342.897064 336.828308,337.606079 
	C338.550659,337.710571 340.623840,337.722656 342.218323,338.602356 
	C349.195374,342.451721 356.102692,346.441406 362.873505,350.641022 
	C364.546631,351.678802 365.612793,353.695160 366.953674,355.621887 
z"/>
<path fill="#225B86" opacity="1.000000" stroke="none" 
	d="
M348.352722,214.118927 
	C348.706543,214.047043 348.969818,214.112671 349.100220,214.157867 
	C349.266144,214.489990 349.405060,214.712387 349.822449,215.183945 
	C349.997589,215.497635 349.986420,215.937027 349.986420,215.937027 
	C349.986420,215.937027 349.974274,215.973663 349.673431,216.006256 
	C348.923798,216.343185 348.474976,216.647507 348.026184,216.951813 
	C347.166107,216.918213 346.306030,216.884628 345.039612,216.697876 
	C345.755127,215.760071 346.876984,214.975449 348.352722,214.118927 
z"/>
<path fill="#215D8B" opacity="1.000000" stroke="none" 
	d="
M348.315857,216.944366 
	C348.474976,216.647507 348.923798,216.343185 349.655579,216.013611 
	C349.494232,216.304565 349.049896,216.620743 348.315857,216.944366 
z"/>
<path fill="#1F5B86" opacity="1.000000" stroke="none" 
	d="
M336.156830,337.211365 
	C336.001404,336.884583 336.004364,336.699646 336.017822,336.237030 
	C336.268890,336.233978 336.509430,336.508545 336.745148,337.064728 
	C336.740295,337.346313 336.315186,337.353210 336.156830,337.211365 
z"/>
<path fill="#1D4A71" opacity="1.000000" stroke="none" 
	d="
M454.503601,398.244141 
	C454.699982,398.427216 454.605225,398.684937 454.222717,399.026245 
	C454.044952,398.854095 454.137482,398.590424 454.503601,398.244141 
z"/>
<path fill="#215D8B" opacity="1.000000" stroke="none" 
	d="
M350.152069,215.869537 
	C349.986420,215.937027 349.997589,215.497635 350.002838,215.278687 
	C350.175903,215.208633 350.354553,215.348236 350.499664,215.516693 
	C350.520874,215.541275 350.382324,215.703522 350.152069,215.869537 
z"/>
<path fill="#1C466F" opacity="1.000000" stroke="none" 
	d="
M350.383942,471.971558 
	C350.812256,471.332428 351.588318,470.700806 352.681519,470.050476 
	C352.242950,470.680847 351.487335,471.329987 350.383942,471.971558 
z"/>
<path fill="#1C466F" opacity="1.000000" stroke="none" 
	d="
M358.245697,467.859985 
	C358.435577,467.343781 358.894318,466.724854 359.668457,466.081055 
	C359.494080,466.623230 359.004333,467.190247 358.245697,467.859985 
z"/>
<path fill="#1C466F" opacity="1.000000" stroke="none" 
	d="
M366.220215,461.880707 
	C366.238098,461.552002 366.475037,461.121399 366.856934,460.850342 
	C366.898712,461.327942 366.711151,461.584259 366.220215,461.880707 
z"/>
<path fill="#1C466F" opacity="1.000000" stroke="none" 
	d="
M363.322937,463.980103 
	C363.482422,463.683380 363.931702,463.365356 364.670288,463.028687 
	C364.510620,463.326263 364.061676,463.642517 363.322937,463.980103 
z"/>
<path fill="#1C466F" opacity="1.000000" stroke="none" 
	d="
M337.271912,479.822968 
	C337.196014,479.445953 337.354370,478.906403 337.756836,478.214966 
	C337.836029,478.595551 337.671082,479.127991 337.271912,479.822968 
z"/>
<path fill="#1C476F" opacity="1.000000" stroke="none" 
	d="
M149.108078,485.225159 
	C149.324081,485.103333 149.583511,485.286713 149.880890,485.779297 
	C149.666321,485.895477 149.410522,485.709442 149.108078,485.225159 
z"/>
<path fill="#1C476F" opacity="1.000000" stroke="none" 
	d="
M148.256729,484.000214 
	C148.285370,483.890411 148.541290,483.783173 148.867889,483.841217 
	C148.938568,484.006500 148.484009,484.002808 148.256729,484.000214 
z"/>
<path fill="#1A4670" opacity="1.000000" stroke="none" 
	d="
M363.519623,357.117737 
	C364.009796,356.959167 364.210510,356.973877 364.713226,356.990784 
	C364.084595,359.854919 363.208374,362.736145 362.203705,365.571838 
	C361.555603,367.401154 360.708496,369.159332 359.972229,370.958252 
	C359.664398,371.710327 359.623138,372.696564 359.101685,373.215912 
	C355.444977,376.858276 351.623413,380.336700 348.009399,384.019531 
	C346.592834,385.463043 345.633667,387.344940 344.352570,388.935669 
	C343.557465,389.922943 342.670715,390.930206 341.616180,391.599030 
	C336.087616,395.105164 330.921631,398.544525 327.407349,404.710449 
	C325.593781,407.892517 320.069977,408.953674 316.231232,410.989441 
	C311.832764,413.321960 307.443909,415.672546 303.205109,418.172424 
	C300.566498,419.372498 298.011963,420.830292 295.273315,421.723755 
	C287.423889,424.284576 279.578369,426.931976 271.576721,428.924469 
	C266.496338,430.189514 261.140137,430.347076 255.462524,430.712372 
	C255.025421,430.232605 255.033417,430.041748 255.041428,429.850891 
	C265.823303,427.060760 276.779236,424.796509 287.328735,421.304474 
	C294.966034,418.776459 302.064240,414.619629 309.940826,410.975006 
	C310.820343,410.636688 311.008514,410.393707 311.043335,410.031982 
	C311.043335,410.031982 311.003174,409.997589 311.363678,409.981812 
	C314.909698,407.750671 318.095215,405.535278 321.280701,403.319885 
	C321.280701,403.319885 321.208984,402.999298 321.562988,403.084625 
	C322.721069,402.508606 323.525208,401.847260 324.329346,401.185913 
	C338.870544,390.640747 350.677063,377.541962 360.381958,362.495117 
	C361.451019,360.837616 362.286438,359.029388 363.519623,357.117737 
z"/>
<path fill="#1C4A73" opacity="1.000000" stroke="none" 
	d="
M299.527161,317.009827 
	C299.910858,317.195160 299.939697,317.398315 300.030029,317.903320 
	C294.798706,329.397400 286.115448,337.511475 275.783478,343.773315 
	C253.468994,357.297302 230.342041,358.446106 206.381500,347.114929 
	C206.245255,346.902313 206.408127,346.862152 207.038177,346.750183 
	C207.782043,346.532959 207.973480,346.313202 208.079666,346.019104 
	C213.050171,347.557159 218.012024,349.123993 222.995651,350.618225 
	C224.841248,351.171600 226.724106,351.624390 228.614548,351.998993 
	C231.757523,352.621765 234.947601,353.713715 238.067856,353.564240 
	C241.920578,353.379730 245.740005,352.204041 249.540176,351.313171 
	C252.482910,350.623322 255.433044,349.878082 258.273956,348.861450 
	C262.424042,347.376343 267.075806,346.408203 270.454498,343.831055 
	C278.238525,337.893585 285.472076,331.216217 292.739960,324.630463 
	C295.178345,322.420929 297.044495,319.579956 299.527161,317.009827 
z"/>
<path fill="#1F4B72" opacity="1.000000" stroke="none" 
	d="
M254.703674,429.717834 
	C255.033417,430.041748 255.025421,430.232605 255.006012,430.709686 
	C243.580170,434.003235 232.096558,433.589996 220.580170,431.705017 
	C212.231567,430.338531 203.842560,429.178131 195.551010,427.526947 
	C192.830902,426.985260 190.419937,425.038300 187.763474,424.000458 
	C181.501007,421.553741 175.097153,419.414124 170.160400,414.153442 
	C174.246765,415.499969 178.353256,417.171021 182.422409,418.928497 
	C205.458618,428.877899 229.532913,431.784119 254.703674,429.717834 
z"/>
<path fill="#1A476F" opacity="1.000000" stroke="none" 
	d="
M137.010452,390.396362 
	C136.970596,389.663666 136.982330,389.276154 136.994080,388.598297 
	C145.905411,395.323242 154.816757,402.338531 163.904770,409.636383 
	C159.010437,408.697357 153.939987,408.419983 149.958069,403.633789 
	C146.126892,399.028748 139.305176,397.169250 137.010452,390.396362 
z"/>
<path fill="#0E3B65" opacity="1.000000" stroke="none" 
	d="
M181.665939,313.830322 
	C179.184525,318.010895 179.238266,317.980927 182.130280,323.165222 
	C183.232147,325.140411 184.024460,327.288269 184.934448,329.743896 
	C181.786118,325.674408 178.661194,321.218506 175.477585,316.381592 
	C177.373093,315.301239 179.327271,314.601868 181.665939,313.830322 
z"/>
<path fill="#0E3B65" opacity="1.000000" stroke="none" 
	d="
M192.661957,337.719116 
	C197.311020,337.320679 204.225449,341.840088 206.042206,346.544189 
	C201.609375,343.960999 197.172684,341.008057 192.661957,337.719116 
z"/>
<path fill="#0E3B65" opacity="1.000000" stroke="none" 
	d="
M184.959518,330.403442 
	C187.221558,330.199463 189.576294,330.318054 192.493134,330.464966 
	C192.334915,331.629272 192.050858,333.719604 191.595215,336.146484 
	C189.299820,334.564056 187.176010,332.645050 184.959518,330.403442 
z"/>
<path fill="#DDEEF3" opacity="1.000000" stroke="none" 
	d="
M320.869415,403.225800 
	C318.095215,405.535278 314.909698,407.750671 311.378052,410.003540 
	C312.845612,405.925598 315.157776,402.490265 320.869415,403.225800 
z"/>
<path fill="#1A476F" opacity="1.000000" stroke="none" 
	d="
M170.093811,413.524597 
	C168.165512,412.777344 166.131897,411.711365 164.086975,410.280151 
	C166.046616,411.011902 168.017563,412.108887 170.093811,413.524597 
z"/>
<path fill="#DDEEF3" opacity="1.000000" stroke="none" 
	d="
M324.024689,401.053497 
	C323.525208,401.847260 322.721069,402.508606 321.610046,403.242981 
	C322.108765,402.517700 322.914398,401.719391 324.024689,401.053497 
z"/>
<path fill="#789CBE" opacity="1.000000" stroke="none" 
	d="
M363.934387,204.406616 
	C364.124481,204.745483 363.937592,204.975662 363.365662,205.085785 
	C363.218628,204.774750 363.410889,204.552155 363.934387,204.406616 
z"/>
<path fill="#DDEEF3" opacity="1.000000" stroke="none" 
	d="
M310.815338,410.064209 
	C311.008514,410.393707 310.820343,410.636688 310.237000,410.765564 
	C310.088287,410.454010 310.285675,410.229401 310.815338,410.064209 
z"/>
<path fill="#0E3B65" opacity="1.000000" stroke="none" 
	d="
M191.623505,336.764374 
	C191.895340,336.606781 192.265869,336.700623 192.663269,337.110352 
	C192.367493,337.289429 192.044861,337.152618 191.623505,336.764374 
z"/>
<path fill="#0E3B65" opacity="1.000000" stroke="none" 
	d="
M207.867386,346.070953 
	C207.973480,346.313202 207.782043,346.532959 207.285782,346.705170 
	C207.175201,346.444550 207.371506,346.241486 207.867386,346.070953 
z"/>
</svg>