<?xml version="1.0" encoding="utf-8"?>
<!-- Generator: Adobe Illustrator 27.3.1, SVG Export Plug-In . SVG Version: 6.00 Build 0)  -->
<svg version="1.1" id="Layer_1" xmlns="http://www.w3.org/2000/svg" xmlns:xlink="http://www.w3.org/1999/xlink" x="0px" y="0px"
	 viewBox="0 0 48 48" style="enable-background:new 0 0 48 48;" xml:space="preserve">
<style type="text/css">
	.st0{fill:#F0DB4F;}
	.st1{fill:#323330;}
</style>
<g transform="translate(0, 0)">
	<path class="st0" d="M11.2,0h25.5C43,0,48,5,48,11.2v25.5C48,43,43,48,36.8,48H11.2C5,48,0,43,0,36.8V11.2C0,5,5,0,11.2,0z"/>
	<path class="st1" d="M12.6,40.1l3.7-2.2c0.7,1.3,1.4,2.3,2.9,2.3c1.5,0,2.4-0.6,2.4-2.8V22h4.5v15.4c0,4.7-2.7,6.8-6.7,6.8
		C15.8,44.2,13.7,42.4,12.6,40.1"/>
	<path class="st1" d="M28.6,39.6l3.7-2.1c1,1.6,2.2,2.7,4.4,2.7c1.9,0,3.1-0.9,3.1-2.2c0-1.5-1.2-2.1-3.3-3l-1.1-0.5
		c-3.3-1.4-5.4-3.1-5.4-6.8c0-3.4,2.6-6,6.6-6c2.9,0,4.9,1,6.4,3.6l-3.5,2.3c-0.8-1.4-1.6-1.9-2.9-1.9c-1.3,0-2.2,0.8-2.2,1.9
		c0,1.4,0.8,1.9,2.8,2.7l1.1,0.5c3.8,1.6,6,3.3,6,7.1c0,4.1-3.2,6.3-7.5,6.3C32.6,44.2,29.9,42.2,28.6,39.6"/>
</g>
</svg>
